<svg width="18" height="19" viewBox="0 0 18 19" fill="none" xmlns="http://www.w3.org/2000/svg">
<path d="M3.27344 9.63264C3.27344 9.18077 3.63975 8.81445 4.09162 8.81445H13.9098C14.3617 8.81445 14.728 9.18077 14.728 9.63264C14.728 10.0845 14.3617 10.4508 13.9098 10.4508H4.09162C3.63975 10.4508 3.27344 10.0845 3.27344 9.63264Z" fill="#31B545"/>
<path d="M8.99982 15.3604C8.54795 15.3604 8.18164 14.994 8.18164 14.5422V4.72399C8.18164 4.27212 8.54795 3.90581 8.99982 3.90581C9.45169 3.90581 9.818 4.27212 9.818 4.72399V14.5422C9.818 14.994 9.45169 15.3604 8.99982 15.3604Z" fill="#31B545"/>
<path d="M18 9.63281C18 14.6034 13.9706 18.6328 9 18.6328C4.02944 18.6328 0 14.6034 0 9.63281C0 4.66225 4.02944 0.632812 9 0.632812C13.9706 0.632812 18 4.66225 18 9.63281ZM1.0799 9.63281C1.0799 14.007 4.62585 17.5529 9 17.5529C13.3741 17.5529 16.9201 14.007 16.9201 9.63281C16.9201 5.25866 13.3741 1.71272 9 1.71272C4.62585 1.71272 1.0799 5.25866 1.0799 9.63281Z" fill="#31B545"/>
</svg>
