<svg width="131" height="131" viewBox="0 0 131 131" fill="none" xmlns="http://www.w3.org/2000/svg">
<path d="M60.0069 14H70.681L72.5005 16.1227V23.0972H70.681H60.0069H58.1875V16.1227L60.0069 14Z" fill="#F0E85B"/>
<path d="M58.361 23.0938H72.5108C75.1787 27.9616 75.4365 31.2251 75.7162 37.118C66.7342 39.4458 62.2556 39.2966 55.0352 37.118C55.0845 31.7831 55.0282 28.8013 58.361 23.0938Z" fill="#71A737"/>
<path d="M56.4887 55.2384C63.1277 56.9496 66.934 57.153 73.9555 55.2384C76.4421 55.2384 78.8507 55.119 82.4461 67.0042V103.939C82.5936 111.257 81.3216 113.717 76.6239 115.159C68.4602 117.454 62.6217 116.81 51.8795 115.159C47.933 112.095 48.1574 109.106 48.2406 103.939V66.1551C51.0452 59.3052 52.5037 54.7537 56.4887 55.2384Z" fill="#71A737"/>
<path d="M48 69.7344C55.1026 71.6601 59.7445 71.7907 68.3778 71.4932L69.5907 73.6159L69.3481 104.122C67.9881 107.329 61.5833 106.61 48 104.364V69.7344Z" fill="#FF6343"/>
<path opacity="0.4" d="M58.5524 14.786L61.4635 14.3008C60.4576 14.6886 60.3242 17.3432 60.4325 23.1554C56.8542 27.886 57.9459 50.1573 57.9459 55.6628C51.2139 62.6374 52.4876 69.9758 52.4876 114.916C49.9292 113.818 49.3507 112.358 48.2422 109.822V68.8235C48.885 62.7288 50.4717 59.6503 54.8528 54.5712C54.6075 42.8176 54.8547 37.6841 55.5806 29.5841L57.9459 23.1554L58.5524 14.786Z" fill="black"/>
<path d="M75.5921 54.8764C68.5569 57.3024 61.2791 57.1811 54.9717 54.8764M75.5921 54.8764C80.3469 58.3698 82.4453 65.4292 82.4453 69.0681V106.731C82.4453 110.37 81.1717 113.523 78.3212 114.797C71.2861 117.223 58.3736 117.536 52.2425 114.797C49.3921 113.523 48.1185 110.37 48.1185 106.731V104.244M75.5921 54.8764C76.0368 46.224 76.2107 28.0578 72.6203 23.1575M54.9717 54.8764C50.2169 58.3698 48.1185 65.4292 48.1185 69.0681V104.244M54.9717 54.8764C54.5269 46.224 54.3531 28.0578 57.9435 23.1575M75.5921 37.1672C68.5569 39.5931 61.2791 39.4718 54.9717 37.1672M57.9435 23.1575H62.1888M57.9435 23.1575V17.2139C57.9435 16.1829 58.368 14.2422 60.3087 14.2422C62.2495 14.2422 67.5057 14.2422 69.8911 14.2422C70.8009 14.2624 72.6203 14.8851 72.6203 17.2139C72.6203 19.5428 72.6203 22.1467 72.6203 23.1575M72.6203 23.1575H69.2847M76.7444 70.0385V95.0862M76.7444 101.939V107.58M48.1185 104.244C56.306 106.973 65.6588 106.047 67.4652 105.821C68.9208 105.639 69.2847 104.426 69.3453 103.698V73.3135C69.2847 72.5857 68.9208 71.3727 67.4652 71.1908C65.5245 71.1908 56.306 72.3431 48.1185 69.6139" stroke="black" stroke-width="1.21296" stroke-linecap="round"/>
</svg>
