<svg width="18" height="18" viewBox="0 0 18 18" fill="none" xmlns="http://www.w3.org/2000/svg">
<path d="M18 9C18 13.9706 13.9706 18 9 18C4.02944 18 0 13.9706 0 9C0 4.02944 4.02944 0 9 0C13.9706 0 18 4.02944 18 9ZM1.41731 9C1.41731 13.1878 4.81219 16.5827 9 16.5827C13.1878 16.5827 16.5827 13.1878 16.5827 9C16.5827 4.81219 13.1878 1.41731 9 1.41731C4.81219 1.41731 1.41731 4.81219 1.41731 9Z" fill="#D9D9D9"/>
<path d="M16 9C16 12.866 12.866 16 9 16C5.13401 16 2 12.866 2 9C2 5.13401 5.13401 2 9 2C12.866 2 16 5.13401 16 9Z" fill="#31B545"/>
</svg>
