<svg width="18" height="19" viewBox="0 0 18 19" fill="none" xmlns="http://www.w3.org/2000/svg">
<path d="M3.27346 9.63266C3.27346 9.18079 3.63977 8.81447 4.09164 8.81447H13.9098C14.3617 8.81447 14.728 9.18079 14.728 9.63266C14.728 10.0845 14.3617 10.4508 13.9098 10.4508H4.09164C3.63977 10.4508 3.27346 10.0845 3.27346 9.63266Z" fill="#FF0C17"/>
<path d="M18 9.63283C18 7.41502 17.1811 5.2753 15.7004 3.62415C14.2198 1.97301 12.1816 0.926717 9.97685 0.686002C7.77214 0.445287 5.55618 1.0271 3.75408 2.31982C1.95198 3.61255 0.690649 5.52515 0.212064 7.69071C-0.266521 9.85627 0.0713406 12.1223 1.16083 14.0541C2.25033 15.9858 4.01473 17.4473 6.11555 18.1581C8.21638 18.8689 10.5057 18.779 12.5443 17.9056C14.5829 17.0322 16.2272 15.4368 17.1618 13.4256L16.1825 12.9705C15.36 14.7404 13.913 16.1443 12.119 16.9129C10.325 17.6815 8.31041 17.7607 6.46166 17.1351C4.61291 16.5096 3.06022 15.2235 2.10145 13.5236C1.14269 11.8236 0.845364 9.82946 1.26652 7.92374C1.68768 6.01803 2.79767 4.33492 4.38353 3.19731C5.9694 2.0597 7.91947 1.54769 9.85964 1.75953C11.7998 1.97136 13.5935 2.8921 14.8965 4.34513C16.1995 5.79816 16.9201 7.68113 16.9201 9.63283H18Z" fill="#FF0C17"/>
<path d="M15.9672 14.4318C16.2128 14.601 16.5506 14.5398 16.7047 14.2845C17.7523 12.5494 18.1863 10.506 17.9266 8.48526C17.6438 6.28555 16.5587 4.26771 14.8796 2.81884C13.2005 1.36997 11.0455 0.592107 8.82808 0.634476C6.61067 0.676845 4.48699 1.53646 2.86443 3.04842C1.24187 4.56037 0.234711 6.61819 0.0361591 8.8271C-0.162393 11.036 0.461646 13.2404 1.78856 15.0175C3.11548 16.7946 5.05183 18.0192 7.22613 18.4563C9.2235 18.8578 11.2925 18.5689 13.097 17.6462C13.3626 17.5105 13.4474 17.1779 13.296 16.921C13.1446 16.6641 12.8143 16.5804 12.5477 16.714C10.9733 17.5028 9.1754 17.7467 7.43898 17.3976C5.52557 17.0129 3.82156 15.9353 2.65386 14.3714C1.48616 12.8076 0.936998 10.8676 1.11173 8.92378C1.28645 6.97991 2.17277 5.16901 3.60064 3.83848C5.0285 2.50794 6.89737 1.75147 8.84871 1.71418C10.8001 1.6769 12.6965 2.36143 14.1741 3.63645C15.6518 4.91146 16.6066 6.68719 16.8555 8.62296C17.0813 10.3797 16.7113 12.1559 15.8135 13.6708C15.6614 13.9273 15.7217 14.2627 15.9672 14.4318Z" fill="#FF0C17"/>
</svg>
