<svg width="20" height="22" viewBox="0 0 20 22" fill="none" xmlns="http://www.w3.org/2000/svg">
<path d="M13.4138 4.54839H17.1379L16.2069 18.4194C15.8966 20.6774 14.7172 21 13.7241 21H6.27586C5.28276 21 4.10345 20.6774 3.7931 18.4194L2.86207 4.54839H6.89655V2.93548C6.89655 1.64516 7.51724 1 8.75862 1H11.5517C12.7931 1 13.4138 1.64516 13.4138 2.93548V4.54839Z" fill="#FF0C17"/>
<path d="M1 4.54839H2.86207M19 4.54839H13.4138M13.4138 4.54839V2.93548C13.4138 1.64516 12.7931 1 11.5517 1H8.75862C7.51724 1 6.89655 1.64516 6.89655 2.93548V4.54839M13.4138 4.54839H2.86207M2.86207 4.54839L3.7931 18.4194C4.10345 20.6774 5.28276 21 6.27586 21H13.7241C14.7172 21 15.8966 20.6774 16.2069 18.4194L17.1379 4.54839M10.3103 8.09677V17.4516M13.4138 8.09677L12.7931 17.4516M6.89655 8.09677L7.51724 17.4516" stroke="white" stroke-width="1.29032" stroke-linecap="round"/>
</svg>
