<svg width="131" height="131" viewBox="0 0 131 131" fill="none" xmlns="http://www.w3.org/2000/svg">
<rect x="55.5547" y="12.6172" width="19.7713" height="8.85463" fill="#D80026"/>
<rect x="57.9805" y="12.6172" width="17.3454" height="5.70093" fill="#FF6343"/>
<path d="M59.6784 21.4727H71.3835L87.0308 43.5486H42.8789L59.6784 21.4727Z" fill="#8ADEFD"/>
<path d="M43.0625 43.3047H53.2514V65.5019C47.397 66.1128 44.6857 65.6675 43.0625 61.3172V43.3047Z" fill="#2FB6EB"/>
<path d="M46.7031 43.5469H87.0948V60.3464C86.7623 62.7836 86.507 64.3077 81.1272 65.6228C74.6623 65.0777 59.5776 65.6228 53.0575 65.6228C48.382 64.5667 46.7031 63.9247 46.7031 60.3464V43.5469Z" fill="#8ADEFD"/>
<path d="M62.3653 23.4141H72.0124L85.7575 41.6085H48.5195L62.3653 23.4141Z" fill="#BCF0FF"/>
<path d="M46.3188 65.3828H81.5406C85.4291 67.7481 87.2888 73.5703 82.0478 77.3911H46.0935C42.1488 75.7536 41.2472 68.1726 46.3188 65.3828Z" fill="#0098C7"/>
<path d="M48.7446 65.3828H83.9664C87.8549 67.7481 89.7146 73.5703 84.4736 77.3911H48.5193C44.5746 75.7536 43.673 68.1726 48.7446 65.3828Z" fill="#2FB6EB"/>
<path d="M46.3188 77.3906H81.5406C85.4291 79.7559 87.2888 85.5781 82.0478 89.399H46.0935C42.1488 87.7615 41.2472 80.1804 46.3188 77.3906Z" fill="#2FB6EB"/>
<path d="M48.7446 77.3906H83.9664C87.8549 79.7559 89.7146 85.5781 84.4736 89.399H48.5193C44.5746 87.7615 43.673 80.1804 48.7446 77.3906Z" fill="#8ADDFF"/>
<path d="M47.4304 89.5804L78.3609 89.3984C80.7022 91.3416 81.8268 92.4754 82.6063 94.7961V111.899C81.5951 114.239 80.8364 115.412 78.3609 116.69H47.673C45.8535 115.962 42.3358 114.143 42.3359 111.899V94.7961C43.4883 91.5818 45.3077 90.3082 47.4304 89.5804Z" fill="#0098C7"/>
<path d="M49.4313 89.3984H83.3336C85.6749 91.3416 86.7994 92.4754 87.579 94.7961V111.899C86.5678 114.239 85.809 115.412 83.3336 116.69H49.4313C47.6118 115.962 47.3085 114.143 47.3086 111.899V94.7961C47.3086 91.7031 47.3086 89.3984 49.4313 89.3984Z" fill="#2FB6EB"/>
<path d="M42.7594 43.3674H87.2751M42.7594 43.3674L59.9228 21.4128M42.7594 43.3674V59.5605C42.7998 61.481 43.9845 65.3463 48.3996 65.4434M87.2751 43.3674L70.9608 21.4128M87.2751 43.3674V59.5605C87.2347 61.481 86.05 65.3463 81.6348 65.4434M70.9608 21.4128H59.9228M70.9608 21.4128H75.4487V12.8008H55.4348V21.4128H59.9228M81.6348 65.4434H78.663M81.6348 65.4434C89.2158 65.2768 90.0649 77.3911 81.6348 77.3911M81.6348 77.3911H78.663M81.6348 77.3911C90.0649 77.3911 89.2158 89.5054 81.6348 89.3387M81.6348 89.3387H78.663M81.6348 89.3387C83.616 89.7229 87.6026 91.704 87.6996 96.5559C87.7967 101.408 87.7401 107.634 87.6996 110.141C87.7198 112.324 86.5352 116.679 81.6348 116.63M81.6348 116.63C76.7344 116.582 57.4362 116.61 48.3997 116.63M81.6348 116.63C72.5982 116.61 53.3 116.582 48.3997 116.63M48.3997 116.63C43.4993 116.679 42.3146 112.324 42.3348 110.141C42.2944 107.634 42.2378 101.408 42.3348 96.5559C42.4319 91.704 46.4185 89.7229 48.3996 89.3387M48.3996 65.4434H51.3714H65.5024M48.3996 65.4434C40.8186 65.2768 39.9696 77.3911 48.3996 77.3911M48.3996 77.3911H51.3714H65.5024M48.3996 77.3911C39.9696 77.3911 40.8186 89.5054 48.3996 89.3387M48.3996 89.3387H51.3714H65.5024" stroke="black" stroke-width="1.21296" stroke-linecap="round"/>
<rect x="54.4648" y="30.6914" width="3.51759" height="3.51759" fill="white"/>
<rect x="50.9453" y="34.207" width="3.51759" height="3.51759" fill="white"/>
<rect x="70.4766" y="75.5703" width="3.51759" height="3.51759" fill="white"/>
<rect x="70.4766" y="63.9258" width="3.51759" height="3.51759" fill="white"/>
<rect x="70.4766" y="87.5781" width="3.51759" height="3.51759" fill="white"/>
</svg>
