<svg width="131" height="131" viewBox="0 0 131 131" fill="none" xmlns="http://www.w3.org/2000/svg">
<path d="M21.8555 47.1084C23.6102 43.7986 24.654 41.987 31.1953 42.1959H70.6166V64.0293H21.8555V47.1084Z" fill="#993B28"/>
<path d="M119.379 47.1084C117.624 43.7986 116.58 41.987 110.039 42.1959H70.6178V64.0293H119.379V47.1084Z" fill="#993B28"/>
<path d="M28.3438 63.9062H70.6155V113.516H35.3183C31.4056 113.519 30.1303 111.762 28.3438 107.694V63.9062Z" fill="#FF6343"/>
<path d="M112.887 63.9062H70.615V113.516H105.912C109.825 113.519 111.1 111.762 112.887 107.694V63.9062Z" fill="#FF6343"/>
<path opacity="0.4" d="M21.7969 47.6536C22.6454 45.119 22.5956 43.5642 28.0436 42.1953L32.5922 42.5592V63.9073H39.2635V113.457H33.8052C29.5015 111.896 29.6706 110.782 28.7714 108.908V64.3319H21.7969V47.6536Z" fill="black"/>
<path d="M70.7383 42.1319H29.5582C26.7685 42.1319 21.7952 43.5268 21.7953 48.2574C21.7953 53.0668 21.6942 60.8116 21.7953 64.0866H28.5274M70.7383 42.1319V64.0866M70.7383 42.1319C61.4444 41.7805 60.6994 38.0848 63.5492 35.4002C65.1253 33.9154 67.8011 32.7398 70.7383 32.6104C73.674 32.4811 76.3052 33.5142 77.8949 34.9439M70.7383 42.1319C80.1819 41.7748 80.903 37.6493 77.8949 34.9439M70.7383 42.1319H99.9102M70.7383 64.0866V113.575M70.7383 64.0866H28.5274M70.7383 64.0866H112.949M70.7383 113.575H36.2903C33.2579 113.575 28.5274 112.605 28.5274 106.54C28.5274 100.475 28.5274 75.7108 28.5274 64.0866M70.7383 113.575H105.186C108.219 113.575 112.949 112.605 112.949 106.54V64.0866M112.949 64.0866H119.681C119.782 60.8116 119.681 53.0668 119.681 48.2574C119.681 43.5268 114.708 42.1319 111.918 42.1319H99.9102M11 35.4C33.9856 17.3877 43.6287 52.0178 66.3111 41.5942M77.8949 34.9439C90.7523 3.98438 125.079 20.9659 99.9102 42.1319M64.0806 34.9439C51.2232 3.98438 16.8963 20.9659 42.0653 42.1319" stroke="black" stroke-width="1.21296" stroke-linecap="round"/>
</svg>
