<svg width="22" height="22" viewBox="0 0 22 22" fill="none" xmlns="http://www.w3.org/2000/svg">
<path d="M10.75 5.75V11.75" stroke="black" stroke-width="1.5" stroke-linecap="round"/>
<path d="M10.75 15.75C11.3023 15.75 11.75 15.3023 11.75 14.75C11.75 14.1977 11.3023 13.75 10.75 13.75C10.1977 13.75 9.75 14.1977 9.75 14.75C9.75 15.3023 10.1977 15.75 10.75 15.75Z" fill="black"/>
<path d="M5.75 2.08782C7.22087 1.23697 8.9286 0.75 10.75 0.75C16.2728 0.75 20.75 5.22715 20.75 10.75C20.75 16.2728 16.2728 20.75 10.75 20.75C5.22715 20.75 0.75 16.2728 0.75 10.75C0.75 8.9286 1.23697 7.22087 2.08782 5.75" stroke="black" stroke-width="1.5" stroke-linecap="round"/>
</svg>
