<svg width="131" height="131" viewBox="0 0 131 131" fill="none" xmlns="http://www.w3.org/2000/svg">
<path d="M52.9219 30.1372C57.3066 26.4924 60.198 24.1173 66.9316 32.5025C73.1138 30.7053 75.3461 32.7467 78.1515 39.3558L85.2473 45.0567L85.7932 48.1497H52.9219V30.1372Z" fill="#DBF1FE"/>
<circle cx="60.0201" cy="32.3209" r="1.5162" fill="#B0DBEC"/>
<circle cx="62.9303" cy="42.7506" r="1.5162" fill="#B0DBEC"/>
<circle cx="79.0631" cy="46.5123" r="1.5162" fill="#B0DBEC"/>
<ellipse cx="57.4714" cy="66.6468" rx="7.45972" ry="7.21713" fill="#8A8A8A"/>
<path d="M64.9913 66.6468C64.9913 70.6327 63.5964 72.0445 60.1394 73.8639C56.0195 73.8639 52.6797 70.6327 52.6797 66.6468C52.6797 62.6609 56.0195 59.4297 60.1394 59.4297C63.2325 61.3098 64.9913 62.6609 64.9913 66.6468Z" fill="#999999"/>
<path d="M19.2043 48.0284L29.4539 47.4219L28.3016 54.0932L19.9928 53.9112L18.4766 51.3034L19.2043 48.0284Z" fill="#686868"/>
<path d="M27.7627 20.4773L41.7772 51.7214L27.3325 46.836C13.3879 47.4976 11.8982 35.8985 22.3152 22.3427L27.7627 20.4773Z" fill="#FBC9CA"/>
<path d="M39.9522 26.9154L53.1879 56.4232L49.7248 57.0477L45.668 54.9193L42.0939 52.5457L27.7747 20.6221L30.1422 21.0393L34.407 24.1554L39.9522 26.9154Z" fill="#FBD7D7"/>
<path d="M48.9187 30.3609L53.3915 31.0556L56.989 31.322L60.7408 33.3992L62.2312 36.3028L62.5829 39.8112L59.9134 49.8918L55.8962 55.5008L53.339 56.8748L39.9074 26.9303L48.9187 30.3609Z" fill="#FDE8E7"/>
<path d="M48.2241 29.805L38.0218 25.921C36.8387 25.449 33.992 24.0624 32.0701 22.2925C29.6676 20.08 25.255 19.5682 22.0953 22.5835C19.9593 24.842 15.6785 31.3933 15.6436 39.5308C15.9982 43.8839 19.6341 46.4361 22.8996 46.3814C25.512 46.3376 28.5601 47.1951 29.7576 47.6294L39.9599 51.5133C41.143 51.9854 43.9897 53.3719 45.9116 55.1419C48.3141 57.3544 53.0102 57.974 56.1698 54.9587C61.5552 48.8582 62.7148 41.1186 62.6214 38.0114C62.2669 33.6583 58.631 31.1061 55.3655 31.1608C52.7531 31.2046 49.705 30.3471 48.5075 29.9128L38.3052 26.0289" stroke="black" stroke-width="1.21296" stroke-linecap="round"/>
<circle cx="26.5884" cy="26.6286" r="1.6375" transform="rotate(20.8414 26.5884 26.6286)" fill="#F09EA0"/>
<circle cx="27.9238" cy="32.3291" r="2.24398" transform="rotate(20.8414 27.9238 32.3291)" fill="#F09EA0"/>
<circle cx="29.9716" cy="28.3072" r="1.15231" transform="rotate(20.8414 29.9716 28.3072)" fill="#F09EA0"/>
<circle cx="35.9942" cy="39.4265" r="2.12269" transform="rotate(20.8414 35.9942 39.4265)" fill="#F4BAB7"/>
<path d="M35.3306 37.4211C34.8169 37.6515 34.2115 38.1448 34.0112 38.6709C33.8109 39.197 33.8278 39.7812 34.0582 40.2949C34.2886 40.8085 34.7136 41.2096 35.2398 41.4099C35.7659 41.6102 36.5936 41.5077 37.1073 41.2773L36.2297 39.3209L35.3306 37.4211Z" fill="#F5B8B9"/>
<circle cx="31.3779" cy="41.4946" r="1.09167" transform="rotate(20.8414 31.3779 41.4946)" fill="#F09EA0"/>
<circle cx="46.1592" cy="40.5063" r="1.09167" transform="rotate(20.8414 46.1592 40.5063)" fill="#F7D4D0"/>
<path d="M45.6056 39.5785C45.4748 39.6372 45.4662 39.6506 45.3678 39.7549C45.2694 39.8591 45.1925 39.9818 45.1415 40.1157C45.0905 40.2497 45.0664 40.3924 45.0706 40.5357C45.0747 40.679 45.107 40.8201 45.1657 40.9509C45.2244 41.0817 45.3082 41.1997 45.4125 41.2981C45.5168 41.3965 45.6394 41.4734 45.7734 41.5244C45.9073 41.5754 46.0501 41.5995 46.1934 41.5953C46.3367 41.5912 46.3524 41.5936 46.4832 41.5349L46.0269 40.5176L45.6056 39.5785Z" fill="#F8CCCA"/>
<circle cx="49.2295" cy="51.5375" r="1.09167" transform="rotate(20.8414 49.2295 51.5375)" fill="#F4BAB7"/>
<circle cx="51.1316" cy="47.3937" r="1.39491" transform="rotate(20.8414 51.1316 47.3937)" fill="#F7D4D0"/>
<circle cx="51.5024" cy="39.4256" r="1.69815" transform="rotate(20.8414 51.5024 39.4256)" fill="#F7D4D0"/>
<circle cx="47.4668" cy="35.0321" r="2.18333" transform="rotate(20.8414 47.4668 35.0321)" fill="#F7D4D0"/>
<circle cx="54.6782" cy="50.6911" r="1.6375" transform="rotate(20.8414 54.6782 50.6911)" fill="#F7D4D0"/>
<circle cx="35.2717" cy="44.7309" r="2.00139" transform="rotate(20.8414 35.2717 44.7309)" fill="#F09EA0"/>
<path d="M21.6276 46.8125C20.5981 46.8125 19.6109 47.2342 18.883 47.9849C18.155 48.7356 17.7461 49.7537 17.7461 50.8153C17.7461 51.8769 18.155 52.895 18.883 53.6457C19.6109 54.3963 20.5981 54.8181 21.6276 54.8181L21.6276 53.5901C20.9139 53.5901 20.2295 53.2978 19.7249 52.7774C19.2203 52.257 18.9368 51.5512 18.9368 50.8153C18.9368 50.0793 19.2203 49.3736 19.7249 48.8532C20.2295 48.3328 20.9139 48.0404 21.6276 48.0404L21.6276 46.8125Z" fill="black"/>
<path d="M65.6604 66.7052C65.6604 65.2695 65.2856 63.8587 64.5732 62.6122C63.8608 61.3658 62.8354 60.3269 61.5983 59.5982C60.3613 58.8696 58.9555 58.4765 57.5199 58.4577C56.0844 58.439 54.6688 58.7953 53.4131 59.4914C52.1575 60.1874 51.1053 61.1992 50.3605 62.4266C49.6158 63.654 49.2044 65.0546 49.1669 66.4898C49.1294 67.925 49.4671 69.3451 50.1468 70.6097C50.8264 71.8743 51.8243 72.9397 53.0419 73.7004L53.756 72.5574C52.7374 71.921 51.9025 71.0297 51.3339 69.9717C50.7654 68.9137 50.4828 67.7257 50.5142 66.525C50.5455 65.3243 50.8898 64.1526 51.5128 63.1257C52.1358 62.0989 53.0161 61.2524 54.0666 60.6701C55.1171 60.0877 56.3013 59.7897 57.5023 59.8054C58.7033 59.8211 59.8794 60.1499 60.9143 60.7595C61.9492 61.3691 62.8071 62.2382 63.4031 63.281C63.9991 64.3238 64.3126 65.5041 64.3126 66.7052H65.6604Z" fill="black"/>
<path d="M65.6604 66.7052C65.6604 65.2695 65.2856 63.8587 64.5732 62.6122C63.8608 61.3658 62.8354 60.3269 61.5983 59.5982C60.3613 58.8696 58.9555 58.4765 57.5199 58.4577C56.0844 58.439 54.6688 58.7953 53.4131 59.4914C52.1575 60.1874 51.1053 61.1992 50.3605 62.4266C49.6158 63.654 49.2044 65.0546 49.1669 66.4898C49.1294 67.925 49.4671 69.3451 50.1468 70.6097C50.8264 71.8743 51.8243 72.9397 53.0419 73.7004L53.756 72.5574C52.7374 71.921 51.9025 71.0297 51.3339 69.9717C50.7654 68.9137 50.4828 67.7257 50.5142 66.525C50.5455 65.3243 50.8898 64.1526 51.5128 63.1257C52.1358 62.0989 53.0161 61.2524 54.0666 60.6701C55.1171 60.0877 56.3013 59.7897 57.5023 59.8054C58.7033 59.8211 59.8794 60.1499 60.9143 60.7595C61.9492 61.3691 62.8071 62.2382 63.4031 63.281C63.9991 64.3238 64.3126 65.5041 64.3126 66.7052H65.6604Z" fill="black"/>
<path d="M65.6604 66.7052C65.6604 65.2695 65.2856 63.8587 64.5732 62.6122C63.8608 61.3658 62.8354 60.3269 61.5983 59.5982C60.3613 58.8696 58.9555 58.4765 57.5199 58.4577C56.0844 58.439 54.6688 58.7953 53.4131 59.4914C52.1575 60.1874 51.1053 61.1992 50.3605 62.4266C49.6158 63.654 49.2044 65.0546 49.1669 66.4898C49.1294 67.925 49.4671 69.3451 50.1468 70.6097C50.8264 71.8743 51.8243 72.9397 53.0419 73.7004L53.756 72.5574C52.7374 71.921 51.9025 71.0297 51.3339 69.9717C50.7654 68.9137 50.4828 67.7257 50.5142 66.525C50.5455 65.3243 50.8898 64.1526 51.5128 63.1257C52.1358 62.0989 53.0161 61.2524 54.0666 60.6701C55.1171 60.0877 56.3013 59.7897 57.5023 59.8054C58.7033 59.8211 59.8794 60.1499 60.9143 60.7595C61.9492 61.3691 62.8071 62.2382 63.4031 63.281C63.9991 64.3238 64.3126 65.5041 64.3126 66.7052H65.6604Z" fill="black"/>
<path d="M50.2691 70.8293C50.9869 72.0726 52.0169 73.107 53.2571 73.8303C54.4973 74.5535 55.9048 74.9405 57.3404 74.953C58.776 74.9655 60.1901 74.6031 61.4427 73.9015C62.6953 73.2 63.7431 72.1836 64.4824 70.953C65.2218 69.7223 65.6272 68.32 65.6584 66.8847C65.6896 65.4493 65.3457 64.0307 64.6606 62.7691C63.9755 61.5074 62.9729 60.4464 61.752 59.691C60.5311 58.9356 59.1342 58.512 57.6994 58.462L57.6525 59.8088C58.8529 59.8506 60.0216 60.205 61.043 60.837C62.0644 61.4689 62.9032 62.3566 63.4764 63.4121C64.0496 64.4677 64.3373 65.6545 64.3112 66.8554C64.285 68.0562 63.9459 69.2294 63.3273 70.259C62.7087 71.2886 61.8321 72.1389 60.7842 72.7258C59.7362 73.3127 58.5532 73.616 57.3521 73.6055C56.1511 73.5951 54.9735 73.2713 53.9359 72.6662C52.8983 72.0611 52.0367 71.1957 51.4361 70.1555L50.2691 70.8293Z" fill="black"/>
<path d="M50.2691 70.8293C50.9869 72.0726 52.0169 73.107 53.2571 73.8303C54.4973 74.5535 55.9048 74.9405 57.3404 74.953C58.776 74.9655 60.1901 74.6031 61.4427 73.9015C62.6953 73.2 63.7431 72.1836 64.4824 70.953C65.2218 69.7223 65.6272 68.32 65.6584 66.8847C65.6896 65.4493 65.3457 64.0307 64.6606 62.7691C63.9755 61.5074 62.9729 60.4464 61.752 59.691C60.5311 58.9356 59.1342 58.512 57.6994 58.462L57.6525 59.8088C58.8529 59.8506 60.0216 60.205 61.043 60.837C62.0644 61.4689 62.9032 62.3566 63.4764 63.4121C64.0496 64.4677 64.3373 65.6545 64.3112 66.8554C64.285 68.0562 63.9459 69.2294 63.3273 70.259C62.7087 71.2886 61.8321 72.1389 60.7842 72.7258C59.7362 73.3127 58.5532 73.616 57.3521 73.6055C56.1511 73.5951 54.9735 73.2713 53.9359 72.6662C52.8983 72.0611 52.0367 71.1957 51.4361 70.1555L50.2691 70.8293Z" fill="black"/>
<path d="M50.2691 70.8293C50.9869 72.0726 52.0169 73.107 53.2571 73.8303C54.4973 74.5535 55.9048 74.9405 57.3404 74.953C58.776 74.9655 60.1901 74.6031 61.4427 73.9015C62.6953 73.2 63.7431 72.1836 64.4824 70.953C65.2218 69.7223 65.6272 68.32 65.6584 66.8847C65.6896 65.4493 65.3457 64.0307 64.6606 62.7691C63.9755 61.5074 62.9729 60.4464 61.752 59.691C60.5311 58.9356 59.1342 58.512 57.6994 58.462L57.6525 59.8088C58.8529 59.8506 60.0216 60.205 61.043 60.837C62.0644 61.4689 62.9032 62.3566 63.4764 63.4121C64.0496 64.4677 64.3373 65.6545 64.3112 66.8554C64.285 68.0562 63.9459 69.2294 63.3273 70.259C62.7087 71.2886 61.8321 72.1389 60.7842 72.7258C59.7362 73.3127 58.5532 73.616 57.3521 73.6055C56.1511 73.5951 54.9735 73.2713 53.9359 72.6662C52.8983 72.0611 52.0367 71.1957 51.4361 70.1555L50.2691 70.8293Z" fill="black"/>
<path d="M21.5664 54.0312H53.7706L49.1613 118.5H33.6354L30.2997 116.681L21.5664 54.0312Z" fill="#D0D0D0"/>
<path d="M53.7127 53.9087L89.9196 53.6055V118.499H49.1641V59.3064C49.7409 55.5808 50.6622 54.3012 53.7127 53.9087Z" fill="#D9D9D9"/>
<path d="M30.5448 47.3008H89.9193V54.0934H28.3008V49.1809C28.3646 48.0067 29.0109 47.6795 30.5448 47.3008Z" fill="#818181"/>
<path d="M75 76.2881L76.213 71.7395L78.1537 68.1006L81.3681 66.0992L93.1338 61.6719L85.7954 77.5617H75.4245L75 76.2881Z" fill="#DF5121"/>
<path d="M111.572 77.5635L113.938 77.139L113.27 72.4691L110.602 68.1024L106.175 65.8584L97.6838 62.3409L93.863 61.7344C89.8283 63.1798 88.4203 64.5734 87.4343 68.1024L85.7968 77.5635H101.383H111.572Z" fill="#F25A26"/>
<path d="M77.0619 77.625H91.86L88.0998 118.502H70.0267L68.0859 114.56L77.0619 77.625Z" fill="#E6DE58"/>
<path d="M94.6516 77.625H111.33L120.67 114.681L119.335 117.41L117.334 118.502H88.1016V85.5699C88.5938 79.7888 90.1043 78.1486 94.6516 77.625Z" fill="#F0E85B"/>
<path d="M90.9502 15.8229L92.7696 13.0938H95.1349L93.1942 61.6123L89.8585 62.7646L89.1914 61.6123L90.9502 15.8229Z" fill="#CFAA5E"/>
<path d="M97.6203 16.1276L95.9828 13.3984C94.1851 13.494 93.5175 13.9228 93.193 15.6424V61.6744L99.2578 62.6447V61.6744L97.6203 16.1276Z" fill="#E2BB6B"/>
<path d="M98.4081 17.337C98.4081 15.9216 97.98 14.5641 97.218 13.5632C96.4559 12.5623 95.4224 12 94.3447 12C93.267 12 92.2334 12.5623 91.4714 13.5632C90.7094 14.5641 90.2813 15.9216 90.2813 17.337L91.4826 17.337C91.4826 16.34 91.7841 15.3839 92.3209 14.6789C92.8576 13.9739 93.5856 13.5779 94.3447 13.5779C95.1038 13.5779 95.8317 13.9739 96.3685 14.6789C96.9052 15.3839 97.2068 16.34 97.2068 17.337H98.4081Z" fill="black"/>
<path d="M111.328 77.8067C113.977 88.0562 119.504 109.514 120.425 113.346C121.347 117.179 118.141 118.38 116.423 118.502H108.053M111.328 77.8067C112.622 77.8067 114.967 77.1638 113.997 74.5923C113.026 72.0208 112.218 70.2863 111.935 69.7405C111.526 68.952 109.703 67.4601 108.296 66.8293C106.889 66.1986 101.726 63.898 99.3199 62.8266M111.328 77.8067C100.998 77.8067 79.6699 77.8067 77.0014 77.8067M99.3199 62.8266L97.8037 16.9766M99.3199 62.8266C96.0207 60.9343 91.3144 62.0381 89.3736 62.8266M90.8898 16.9766L89.883 47.4219M89.3736 62.8266L79.6699 66.8293C78.6389 67.3752 77.4462 68.8914 77.0014 69.7405C76.4677 70.7593 75.4852 73.3996 75.0607 74.5923C74.5957 75.6638 74.3329 77.8067 77.0014 77.8067M89.3736 62.8266L89.6644 54.0326M77.0014 77.8067L68.0861 114.377C68.1063 115.206 68.5834 117.192 70.3301 118.502M70.3301 118.502H34.3658C32.6071 118.502 30.3789 118.259 29.8171 114.377C29.3582 111.206 25.3965 82.5917 22.6635 62.8266M70.3301 118.502H94.4074M94.4074 118.502V105.159M94.4074 118.502H108.053M94.4074 97.8812V91.3312M104.536 96.4863L108.053 118.502M89.6644 54.0326H21.4478C21.807 56.6315 22.219 59.612 22.6635 62.8266M89.6644 54.0326L89.883 47.4219M21.4478 47.4219H28.1191H86.402M89.883 47.4219H86.402M86.402 47.4219C85.5327 45.5216 82.6418 41.248 78.0325 39.3557C77.3856 35.8988 74.2238 29.6763 66.752 32.4418C64.7708 28.1763 58.3826 23.3446 52.4391 30.7437M57.7154 66.8293C44.4938 83.4469 5.2548 96.4863 22.6635 62.8266M62.2034 107.949V111.77M53.7733 107.949V111.77M45.1613 107.949V111.77M36.7312 107.949V111.77" stroke="black" stroke-width="1.21296" stroke-linecap="round"/>
<circle cx="72.149" cy="37.5357" r="1.5162" fill="#B0DBEC"/>
<circle cx="68.3873" cy="42.8717" r="1.5162" fill="#B0DBEC"/>
</svg>
