<svg width="131" height="132" viewBox="0 0 131 132" fill="none" xmlns="http://www.w3.org/2000/svg">
<path d="M25.9451 74.5547L32.9197 82.3177H19.0312L25.9451 74.5547Z" fill="#E4746B"/>
<path d="M46.2621 48.1731L58.4522 60.6667C58.0886 72.857 31.4891 68.66 42.6838 48.598L46.2621 48.1731Z" fill="#F7EBD2"/>
<path d="M83.1972 72.25L85.1986 73.1597L90.5356 79.0426L90.9602 82.1356H79.8009L76.2227 78.7394L81.7416 73.1597L83.1972 72.25Z" fill="#E4746B"/>
<circle cx="76.7088" cy="39.6228" r="4.54861" fill="#F8A953"/>
<path d="M67.4903 70.3737C66.6288 71.2182 65.6226 74.0346 65.6106 75.2409C65.5986 76.4472 66.0663 77.6088 66.9108 78.4703C67.7554 79.3318 68.9075 79.8225 70.1138 79.8345C71.3201 79.8465 74.0886 78.7386 74.9501 77.8941L71.19 74.1943L67.4903 70.3737Z" fill="#F0E85B"/>
<path d="M49.6934 51.6158C48.8319 52.4604 47.8258 55.2768 47.8138 56.4831C47.8018 57.6894 48.2695 58.851 49.114 59.7125C49.9585 60.574 51.1106 61.0647 52.3169 61.0767C53.5232 61.0887 56.2917 59.9808 57.1532 59.1363L53.3932 55.4365L49.6934 51.6158Z" fill="#F0E85B"/>
<path d="M103.209 79.7713C103.209 82.2834 100.82 82.5004 97.8722 82.5004C94.9246 82.5004 92.5352 82.2834 92.5352 79.7713C92.5352 77.2591 94.9246 75.2227 97.8722 75.2227C100.82 75.2227 103.209 77.2591 103.209 79.7713Z" fill="#F8A953"/>
<path d="M43.2914 78.6047C43.2914 82.0799 40.3589 82.3801 36.7414 82.3801C33.1239 82.3801 30.1914 82.0799 30.1914 78.6047C30.1914 75.1296 33.1239 72.3125 36.7414 72.3125C40.3589 72.3125 43.2914 75.1296 43.2914 78.6047Z" fill="#F8A953"/>
<path d="M82.347 39.6247C82.347 38.884 82.2011 38.1505 81.9176 37.4662C81.6342 36.7819 81.2187 36.1601 80.695 35.6364C80.1712 35.1126 79.5494 34.6972 78.8651 34.4137C78.1808 34.1303 77.4474 33.9844 76.7067 33.9844C75.966 33.9844 75.2326 34.1303 74.5482 34.4137C73.8639 34.6972 73.2422 35.1126 72.7184 35.6364C72.1947 36.1601 71.7792 36.7819 71.4957 37.4662C71.2123 38.1505 71.0664 38.884 71.0664 39.6247L72.1945 39.6247C72.1945 39.0321 72.3112 38.4453 72.5379 37.8979C72.7647 37.3505 73.0971 36.853 73.5161 36.434C73.9351 36.015 74.4325 35.6827 74.9799 35.4559C75.5274 35.2291 76.1141 35.1124 76.7067 35.1124C77.2992 35.1124 77.886 35.2291 78.4334 35.4559C78.9809 35.6827 79.4783 36.015 79.8973 36.434C80.3163 36.853 80.6487 37.3505 80.8754 37.8979C81.1022 38.4453 81.2189 39.0321 81.2189 39.6247H82.347Z" fill="black"/>
<circle cx="87.8045" cy="61.7615" r="6.91389" fill="#E4746B"/>
<path d="M71.0664 39.6247C71.0664 40.3653 71.2123 41.0988 71.4957 41.7831C71.7792 42.4674 72.1947 43.0892 72.7184 43.6129C73.2422 44.1367 73.8639 44.5521 74.5482 44.8356C75.2326 45.119 75.966 45.2649 76.7067 45.2649C77.4474 45.2649 78.1808 45.119 78.8651 44.8356C79.5494 44.5521 80.1712 44.1367 80.695 43.6129C81.2187 43.0892 81.6342 42.4674 81.9176 41.7831C82.2011 41.0988 82.347 40.3653 82.347 39.6247H81.2189C81.2189 40.2172 81.1022 40.804 80.8754 41.3514C80.6487 41.8989 80.3163 42.3963 79.8973 42.8153C79.4783 43.2343 78.9809 43.5666 78.4334 43.7934C77.886 44.0202 77.2992 44.1369 76.7067 44.1369C76.1141 44.1369 75.5274 44.0202 74.9799 43.7934C74.4325 43.5666 73.9351 43.2343 73.5161 42.8153C73.0971 42.3963 72.7647 41.8989 72.5379 41.3514C72.3112 40.804 72.1945 40.2172 72.1945 39.6247L71.0664 39.6247Z" fill="black"/>
<rect x="27.2812" y="43.8672" width="6.77267" height="6.21996" transform="rotate(-45 27.2812 43.8672)" fill="#86A652"/>
<rect x="79.1953" y="21.7891" width="6.77267" height="6.21996" transform="rotate(-45 79.1953 21.7891)" fill="#B85652"/>
<rect x="90.9609" y="48.3555" width="6.77267" height="6.21996" transform="rotate(-45 90.9609 48.3555)" fill="#B85652"/>
<path d="M44.1406 36.1652L57.2406 23.793C65.7314 23.793 64.1545 50.2962 44.1406 39.0157V36.1652Z" fill="#FF6343"/>
<path d="M41.957 78.0128L55.057 65.6406C58.1862 65.6406 59.8121 65.662 59.7876 69.6434C58.0288 72.9184 57.301 76.5573 59.7876 82.3795C53.2982 82.3795 52.995 82.3795 48.2644 82.3795C43.5339 82.3795 44.2842 82.175 41.957 80.8633V78.0128Z" fill="#FF6343"/>
<path d="M37.8331 71.9488L45.22 58.8714C47.274 58.6626 49.3674 59.6763 50.5597 61.5174C56.0881 66.4905 51.5395 69.4016 43.8978 76.3762C42.0042 76.5773 42.0705 73.2896 39.4099 72.7373L37.8331 71.9488Z" fill="#FF6343"/>
<path d="M68.0338 51.4477C75.8818 49.4053 77.9429 50.8593 77.0704 58.6649C83.2444 57.4413 85.3204 58.6162 85.1972 65.882C94.8885 65.5705 94.2685 69.3371 90.1704 78.0116L85.1972 72.9172L82.3468 72.2501L79.9815 68.7931L75.9787 67.2769L72.3398 68.7931L70.3384 71.6436L69.6107 72.2501L64.3343 66.9737H61.969L59.9676 69.3389C56.4379 65.8463 55.63 64.1856 57.7236 62.1218C54.773 51.6582 61.969 48.9612 68.0338 51.4477Z" fill="#86A652"/>
<path d="M30.735 57.8773C38.583 55.8348 38.1947 57.0282 41.9549 63.8814L37.7095 72.3116L34.3133 72.9309L31.1596 75.2962L29.704 78.3764L25.8225 74.2523L24.1244 76.0718L22.7899 76.6176C19.2602 73.1249 18.6951 70.0086 20.7887 67.9448C17.8381 57.4812 24.6702 55.3908 30.735 57.8773Z" fill="#71A737"/>
<path d="M101.029 61.883C93.1808 59.8405 91.4467 63.9447 92.9629 70.0095L90.1732 77.5905L90.9616 82.0178H92.5385C92.3171 76.5304 93.6181 75.0713 98.0574 74.8614L102.545 77.5905L103.394 80.6229H106.73H108.792C112.322 77.1303 112.887 73.7716 110.793 71.7079C113.341 62.6711 107.094 59.3965 101.029 61.883Z" fill="#71A737"/>
<path d="M22.1847 82.3815H108.305L111.095 84.504C107.41 98.0778 100.664 106.398 89.5043 107.975H39.2874C29.5637 106.206 21.4638 99.5448 18.6063 84.3829C18.0979 81.6853 22.1847 82.3815 22.1847 82.3815Z" fill="#F7EBD2"/>
<path opacity="0.4" d="M18 83.1065L24.8532 82.5C26.3375 98.6658 33.3254 102.849 44.2606 107.487H37.0435C24.9713 103.215 21.0424 97.9159 18 83.1065Z" fill="black"/>
<rect x="38.6797" y="108.094" width="51.5509" height="6.06482" fill="#86A652"/>
<rect opacity="0.4" x="38.1953" y="107.973" width="6.06482" height="6.18611" fill="black"/>
<path d="M21.2719 82.3201H33.0376M21.2718 82.3201C19.8768 82.3201 17.548 82.8417 18.4213 85.8984C18.6456 86.6834 18.9421 87.7018 19.3374 88.8701C21.665 95.7496 27.4171 107.829 42.0135 108.091M42.0135 114.16C38.2534 114.16 38.2534 114.16 38.2534 111.128C38.2534 108.096 38.2534 108.024 42.0135 108.091M42.0135 108.091C42.1742 108.094 42.3358 108.096 42.4986 108.096H86.5294C104.057 108.096 109.047 91.3567 110.607 85.8984C111.48 82.8417 109.151 82.3201 107.756 82.3201H33.0376M86.7719 108.091C90.5321 108.024 90.5321 108.095 90.5321 111.128C90.5321 114.16 90.5321 114.16 86.7719 114.16H42.0135M33.0376 82.3201L29.7626 78.3782M18.6034 82.5628C19.9174 80.9657 22.9336 77.347 24.4862 75.6488C26.0388 73.9507 26.0024 73.9507 27.3973 75.6488L29.7626 78.3782M29.7626 78.3782C31.3395 71.7674 39.2237 69.402 43.5297 76.7407" stroke="black" stroke-width="1.21296" stroke-linecap="round"/>
<path d="M22.9689 96.1468H35.523M19.3906 88.9297H40.9207" stroke="black" stroke-width="1.21296" stroke-linecap="round"/>
<path d="M45.0457 82.2583C42.5592 82.3392 39.9513 80.1963 42.3772 77.9523L53.0137 67.7684M60.0865 69.4008L57.9032 67.0356C57.46 66.5776 57.1139 66.2348 56.8133 66.0045M60.0865 69.4008C58.4086 71.5438 56.0595 77.1154 60.0865 82.2583M60.0865 69.4008L61.906 67.3994C62.3305 66.9142 63.4828 66.235 64.6958 67.3994C65.0471 67.7367 66.0716 68.7502 67.4585 70.1286M79.6152 82.2583C78.6287 81.2718 77.4095 80.0532 76.0955 78.7406M67.4585 70.1286C61.906 75.4656 68.5773 83.5318 75.3062 77.9523M67.4585 70.1286C68.1905 70.8561 69.3873 72.0941 70.2754 72.9791M75.3062 77.9523C73.5197 76.1681 71.978 74.6755 70.2754 72.9791M75.3062 77.9523C75.5723 78.218 75.8358 78.4812 76.0955 78.7406M70.2754 72.9791C70.3803 70.5656 72.0172 68.5681 74.0962 67.7684M82.1018 72.57L76.0955 78.7406M82.1018 72.57C82.6072 72.2414 83.9212 71.8631 85.1342 72.9791C86.3472 74.095 88.5912 76.5573 89.5615 77.649C89.7285 77.8222 89.9085 78.0287 90.0854 78.2576M82.1018 72.57C80.3122 67.7315 76.8237 66.7193 74.0962 67.7684M90.1074 82.2583C91.9095 81.3982 91.0436 79.4979 90.0854 78.2576M74.0962 67.7684L64.6958 58.1203M102.662 82.2583C102.995 81.6083 103.176 80.9782 103.231 80.3781M92.5939 82.2583C91.7498 76.4366 94.9012 74.5127 97.9916 74.8975M103.231 80.3781C107.817 82.4402 114.015 78.8986 110.667 71.7054C114.245 66.9038 108.059 57.7564 101.024 62.0017C99.1778 61.3963 96.7264 60.9468 94.8986 61.5935M103.231 80.3781C103.499 77.4552 100.77 75.2435 97.9916 74.8975M92.5939 68.1878C93.0549 70.4925 93.0274 73.6986 90.0854 78.2576M92.5939 68.1878C91.7789 64.1129 93.0036 62.2641 94.8986 61.5935M92.5939 68.1878C91.947 66.9951 89.5494 64.8886 85.1342 66.0045C85.5385 62.4465 84.5035 55.9976 77.1286 58.6661C78.0788 54.7846 77.6017 47.9192 68.0921 51.5096C65.0926 48.2958 55.2814 50.7586 56.706 58.6053M97.9916 74.8975L104.724 68.1878M94.8986 61.5935C94.474 55.5123 85.3162 50.5796 81.6773 58.2214M56.8133 66.0045C55.8799 65.2894 55.3847 65.6594 53.7791 67.0356L53.0137 67.7684M56.8133 66.0045C55.9415 63.7727 57.1766 62.4061 57.9032 62.0017C57.6603 61.5242 57.2272 60.3887 57.0542 59.9396M37.8893 71.7054L42.0909 63.9424M53.0137 67.7684C52.6874 63.3359 51.0499 61.5771 48.0175 59.3331C45.585 57.5331 44.6617 58.9895 44.2573 59.9396L42.0909 63.9424M56.706 58.6053L49.5547 51.5096M56.706 58.6053C56.821 59.2391 56.783 59.2358 57.0542 59.9396M42.0909 63.9424C41.3061 62.7617 40.7268 61.6522 40.3152 60.6118M40.3152 60.6118C38.7384 56.3009 39.7695 52.6621 42.9837 48.841C44.2288 47.3608 46.0768 47.9316 46.8652 48.841L49.5547 51.5096M40.3152 60.6118C39.1629 58.4875 35.6453 55.0151 30.7935 58.1203C25.6989 54.6025 17.2689 58.399 20.9078 68.0057C19.8768 69.34 18.5425 74.7377 23.2124 76.8603M35.4028 72.3117L27.4579 64.3668M49.5547 51.5096C45.6523 54.057 47.7144 64.731 57.0542 59.9396M27.5792 43.9283C27.5792 43.3219 31.2787 39.3797 32.0065 39.4404C32.7343 39.501 36.1912 42.776 36.1306 43.5645C36.0699 44.3529 32.1278 48.0524 31.6736 48.0227C31.2193 47.993 27.5792 44.5348 27.5792 43.9283ZM44.682 36.4689L56.706 24.4449C57.3477 23.8032 58.6216 23.2956 60.2685 25.1276C65.6662 31.1319 61.5422 45.9908 45.6523 40.1685C44.6011 39.663 42.9354 38.2155 44.682 36.4689ZM84.0425 17.0007C84.7703 17.0613 88.2273 20.3363 88.1666 21.1248C88.106 21.9132 84.1638 25.6127 83.7096 25.583C83.2553 25.5533 79.6152 22.0951 79.6152 21.4887C79.6152 20.8822 83.3148 16.94 84.0425 17.0007ZM95.9296 43.9283C96.6574 43.989 100.114 47.264 100.054 48.0524C99.9931 48.8408 96.0509 52.5404 95.5967 52.5107C95.1425 52.481 91.5023 49.0228 91.5023 48.4163C91.5023 47.8098 95.2019 43.8677 95.9296 43.9283Z" stroke="black" stroke-width="1.21296" stroke-linecap="round"/>
<circle cx="52.9909" cy="37.1354" r="1.57685" fill="black"/>
<circle cx="57.1159" cy="33.2565" r="1.57685" fill="black"/>
<circle cx="59.6628" cy="28.1589" r="1.57685" fill="black"/>
<circle cx="48.1394" cy="39.5612" r="1.57685" fill="black"/>
<circle cx="48.5026" cy="62.2448" r="1.57685" fill="black"/>
<circle cx="47.655" cy="67.7019" r="1.57685" fill="black"/>
<circle cx="44.8659" cy="72.6745" r="1.57685" fill="black"/>
<circle cx="45.8347" cy="81.4089" r="1.57685" fill="black"/>
<circle cx="50.5651" cy="79.2253" r="1.57685" fill="black"/>
<circle cx="54.6901" cy="75.3464" r="1.57685" fill="black"/>
<circle cx="57.237" cy="70.2487" r="1.57685" fill="black"/>
</svg>
