<svg width="131" height="131" viewBox="0 0 131 131" fill="none" xmlns="http://www.w3.org/2000/svg">
<path d="M83.308 13.893L89.0358 11.1142L96.5215 10.0934C106.207 11.8236 110.437 14.3465 115.803 21.6622C118.282 25.1596 119.361 26.8312 120.907 32.6639C115.463 25.8587 110.245 22.0025 102.533 18.9401L98.9601 17.6358C97.2021 17.1254 96.7484 16.7852 94.6501 16.7285L89.4328 17.1821L85.86 19.5072L70.8885 34.4786L66.8054 30.3955L83.308 13.893Z" fill="#F1F1F1"/>
<path d="M68.3881 29.1478L70.2028 30.5088L72.9816 28.9776L76.2708 29.091L73.2651 32.0967L51.0347 97.9932L44.3429 95.498L36.4035 87.5587L32.774 79.7327L31.8667 69.7518L33.4545 64.8748L36.2333 60.735L68.3881 29.1478Z" fill="#956C44"/>
<path d="M76.3295 29.0348L78.1442 32.324L75.4788 37.0309L73.7775 40.7737L76.0459 44.4031L79.5619 45.0836L86.8776 40.4901L89.8832 43.4958L88.4654 48.4295L90.9607 50.9247L98.0495 49.7338L100.601 52.2857L98.73 60.2818L100.942 63.7411L68.5601 96.1223L58.5791 99.1846L52.2276 98.2772C40.999 90.6782 39.5812 81.0942 38.9007 76.2172L38.3336 70.8865L40.4319 64.932L76.3295 29.0348Z" fill="#A87B4F"/>
<path d="M35.3242 86.4844L38.4433 89.9437L13.0938 119.83L10.712 114.045L12.2999 109.508L35.3242 86.4844Z" fill="#CFAA5E"/>
<path d="M44.3438 95.499L38.3892 89.8848L13.5501 114.724C12.4879 117.033 12.9615 118.009 15.2514 120.508L20.4687 119.374L44.3438 95.499Z" fill="#E2BB6B"/>
<path d="M44.3477 95.8398L32.9206 107.267L21.4367 118.637M12.4765 109.677L35.3308 86.823M32.552 95.8398L35.5009 92.8909M29.0926 99.2991L17.7506 110.641M82.3436 14.8585L68.3361 28.8658M37.0888 60.1128L68.3361 28.8658M70.8881 93.9117L101.171 63.6288M116.143 48.6574L101.171 63.6288M62.6084 42.7596L57.2776 48.0903M55.0659 50.302L41.1719 64.1959C39.1871 66.1807 37.1909 70.8763 38.7334 75.5945M82.5704 22.7978C84.2528 20.4728 89.0807 16.0154 94.9332 16.7866M98.7895 17.5806C99.4133 17.6751 101.047 18.0683 102.589 18.8849M68.3361 28.8658L70.321 30.8506C71.6253 29.4707 74.8578 27.3346 77.3531 29.8298C79.8483 32.3251 77.4098 35.1038 75.992 36.5216C74.5743 37.9393 72.4193 40.4345 75.2548 43.3834C76.7735 44.9629 78.7708 47.5799 85.0089 41.3419C86.6535 39.6973 91.0769 41.1718 89.4891 45.3683C89.2622 46.1622 87.6743 47.9769 89.5458 50.0752C91.0429 51.7538 94.6308 50.7746 96.2376 50.0752C98.0334 49.4514 101.398 49.4287 100.491 54.3284C100.309 55.145 99.3566 57.5419 98.903 58.6383C98.6042 59.3603 98.1997 60.6572 99.4701 61.9275C100.74 63.1978 101.134 63.591 101.171 63.6288" stroke="black" stroke-width="1.61158" stroke-linecap="round"/>
<path d="M116.081 49.8478C120.037 45.8921 121.99 40.2583 121.512 34.1857C121.033 28.113 118.162 22.099 113.529 17.4666C108.897 12.8341 102.883 9.96281 96.81 9.48423C90.7372 9.00565 85.1034 10.959 81.1477 14.9146L82.283 16.05C85.9816 12.3515 91.2493 10.5251 96.9272 10.9725C102.605 11.42 108.228 14.1047 112.56 18.436C116.891 22.7673 119.576 28.3905 120.023 34.0684C120.471 39.7463 118.644 45.0139 114.946 48.7124L116.081 49.8478Z" fill="black"/>
<path d="M71.6218 94.3076C67.6661 98.2632 62.0322 100.217 55.9595 99.738C49.8868 99.2594 43.8727 96.388 39.2402 91.7556C34.6077 87.1232 31.7364 81.1092 31.2578 75.0365C30.7792 68.9639 32.7326 63.33 36.6882 59.3744L37.8236 60.5098C34.125 64.2083 32.2986 69.4759 32.7461 75.1538C33.1936 80.8317 35.8783 86.4549 40.2097 90.7862C44.541 95.1175 50.1642 97.8022 55.8422 98.2497C61.5202 98.6971 66.7879 96.8707 70.4864 93.1722L71.6218 94.3076Z" fill="black"/>
<path d="M11.9644 109.054C11.2867 109.732 10.7461 110.533 10.3737 111.413C10.0012 112.293 9.80408 113.234 9.79354 114.181C9.78301 115.129 9.95928 116.066 10.3123 116.938C10.6653 117.809 11.1881 118.599 11.8509 119.262C12.5138 119.925 13.3036 120.447 14.1753 120.8C15.047 121.154 15.9835 121.33 16.9314 121.319C17.8793 121.309 18.8199 121.112 19.6997 120.739C20.5795 120.367 21.3811 119.826 22.0588 119.148L20.94 118.03C20.4125 118.557 19.7886 118.978 19.1038 119.268C18.4191 119.558 17.6869 119.711 16.9492 119.719C16.2114 119.727 15.4825 119.59 14.804 119.316C14.1255 119.041 13.5108 118.634 12.9949 118.118C12.479 117.602 12.0721 116.987 11.7973 116.309C11.5225 115.63 11.3853 114.901 11.3935 114.164C11.4017 113.426 11.5552 112.694 11.8451 112.009C12.135 111.324 12.5557 110.7 13.0832 110.173L11.9644 109.054Z" fill="black"/>
</svg>
