<svg width="131" height="132" viewBox="0 0 131 132" fill="none" xmlns="http://www.w3.org/2000/svg">
<path d="M62.3447 98.4829C62.3447 94.0332 60.6809 89.7443 57.6802 86.4586C54.6794 83.1729 50.5586 81.128 46.1271 80.7255C41.6957 80.3229 37.2738 81.5919 33.7302 84.2831C30.1865 86.9743 27.7772 90.8932 26.9754 95.2701C26.1737 99.647 27.0374 104.166 29.397 107.938C31.7566 111.711 35.4415 114.465 39.728 115.659C44.0144 116.853 48.5925 116.402 52.5631 114.393C56.5336 112.385 59.6097 108.964 61.1869 104.803L60.0595 104.376C58.5889 108.255 55.7209 111.445 52.0188 113.318C48.3167 115.19 44.0482 115.611 40.0516 114.498C36.055 113.384 32.6193 110.816 30.4192 107.299C28.2192 103.781 27.4138 99.5683 28.1614 95.4874C28.9089 91.4064 31.1553 87.7525 34.4594 85.2433C37.7634 82.734 41.8862 81.5509 46.0181 81.9262C50.1499 82.3015 53.9921 84.2082 56.7899 87.2717C59.5878 90.3351 61.139 94.3341 61.139 98.4829H62.3447Z" fill="black"/>
<path d="M68.0156 36.6211H77.0825C78.8753 45.2636 80.0779 50.1486 82.8441 58.9396C84.5674 63.6532 85.176 66.5696 85.8159 72.1003V107.822C85.3399 111.522 83.9964 113.462 81.1459 113.462H68.0156V36.6211Z" fill="#F8AB56"/>
<path d="M68.0156 36.6211H58.9487C57.1559 45.2636 55.9533 50.1486 53.1872 58.9396C51.4638 63.6532 50.8552 66.5696 50.2154 72.1003V107.822C50.6914 111.522 52.0348 113.462 54.8853 113.462H68.0156V36.6211Z" fill="#F8AB56"/>
<path d="M77.9919 60.5156H80.1146C82.0006 65.6376 83.0863 70.7045 83.0863 73.6156V105.698C83.0863 106.002 83.0863 110.49 77.9919 110.49H66.4688C74.0347 105.832 76.812 103.554 77.9919 100.361V60.5156Z" fill="white"/>
<path d="M67.7451 115.402C71.3435 115.443 79.5594 115.5 83.635 115.402C87.7105 115.305 88.689 110.874 88.6688 108.671V77.4974C88.5717 68.1333 88.0995 64.4718 86.3035 60.0307C82.9679 51.7826 78.1159 31.9506 76.6604 22.9141H59.3756C57.9201 31.9506 53.0681 51.7826 49.7325 60.0307C47.9365 64.4718 47.4642 68.1333 47.3672 77.4974V81.4395M68.2908 115.402C64.6923 115.443 56.4765 115.5 52.401 115.402C51.4543 115.38 50.9171 115.204 50.2783 114.796" stroke="black" stroke-width="1.21296" stroke-linecap="round"/>
<path d="M56.6445 17.5769C56.6445 17.1523 57.616 16 58.0394 16H68.0464V21.337H56.6445V17.5769Z" fill="#FF9F35"/>
<path d="M79.4492 17.5769C79.4492 17.1523 78.4777 16 78.0543 16H68.0474V21.337H79.4492V17.5769Z" fill="#FF9F35"/>
<path d="M90.8516 78.3477C92.5497 83.9273 96.1336 85.6861 97.0019 87.9301C97.6065 89.4928 97.5745 90.9757 96.2492 92.2361C94.402 93.9929 90.8516 92.9032 90.8516 90.9625V78.3477Z" fill="#F8AB56"/>
<path d="M91.5781 91.0246C94.186 92.0556 96.9152 90.5394 96.7332 87.9922C98.5527 91.6311 93.155 94.2996 91.5781 91.0246Z" fill="white"/>
<path d="M30.5662 93.9961L41.3616 97.3924V99.4544L30.5662 102.911C29.0503 100.425 28.9892 96.4827 30.5662 93.9961Z" fill="#F8AB56"/>
<path d="M49.9141 96.4805L47.3062 97.3902V99.4522L49.9141 100.362V96.4805Z" fill="#F8AB56"/>
<path d="M39.7852 112.067L43.1815 101.271H45.2435L48.7004 112.067C46.2139 113.583 42.2717 113.644 39.7852 112.067Z" fill="#F8AB56"/>
<path d="M39.7852 84.8436L43.1815 95.639H45.2435L48.7004 84.8436C46.2139 83.3276 42.2717 83.2665 39.7852 84.8436Z" fill="#F8AB56"/>
<path d="M31.2656 91.7812L41.3006 97.0131L42.7587 95.555L37.5696 85.4771C34.7394 86.1635 31.9087 88.9078 31.2656 91.7812Z" fill="#F8AB56"/>
<path d="M31.2656 105.024L41.3006 99.7916L42.7587 101.25L37.5696 111.328C34.7394 110.641 31.9087 107.897 31.2656 105.024Z" fill="#F8AB56"/>
<path d="M49.9125 101.252L47.0831 99.7945L45.625 101.253L49.9125 109.826L49.9125 101.252Z" fill="#F8AB56"/>
<path d="M49.973 95.5544L46.8197 97.0881L45.5461 95.7539L49.9735 86.8992C49.9735 87.4451 49.973 95.5544 49.973 95.5544Z" fill="#F8AB56"/>
<path d="M27.0508 62.457C40.209 65.4213 45.9255 67.7681 45.7911 76.2242C39.4764 73.0743 36.2259 70.7839 30.811 66.0353C36.8031 73.8657 39.717 76.1272 44.5781 78.5894C36.5119 82.5922 30.0832 76.4061 27.0508 62.457Z" fill="#7E9D4C"/>
</svg>
