<svg width="131" height="131" viewBox="0 0 131 131" fill="none" xmlns="http://www.w3.org/2000/svg">
<path d="M96.5426 18.3396C103.699 9.72765 114.676 13.3057 114.676 25.1322L100.303 60.9146L87.2028 59.8836L81.5625 56.3054L96.5426 18.3396Z" fill="#C5874E"/>
<path d="M98.9067 18.2803C102.909 9.12261 114.675 13.6708 114.675 25.4973L100.605 60.3096H87.3229L83.4414 57.3378L98.9067 18.2803Z" fill="#D99557"/>
<path d="M101.638 57.5194L113.889 26.7707C115.041 24.1426 115.757 18.001 109.401 14.4591C103.045 10.9173 97.1497 16.036 95.7548 19.129L81.1992 56.1244M100.303 29.3179L103.093 36.717M95.1483 41.8721L97.6955 49.2105" stroke="black" stroke-width="1.21296" stroke-linecap="round"/>
<path d="M34.0195 49.0298C32.6247 43.1471 39.9632 36.3544 47.2408 41.2669L53.9121 53.3358L52.6991 60.6136L44.2084 60.0071L41.2973 58.0664L34.0195 49.0298Z" fill="#E88256"/>
<path d="M37.6578 46.9065C35.4139 41.448 39.9627 36.3538 47.2403 41.2662L53.9116 53.3352L52.6986 60.613L45.8453 58.5509L37.6578 46.9065Z" fill="#FA8856"/>
<path d="M43.4805 31.2594L39.3565 25.9224C37.9614 23.0719 40.1174 18.8119 44.8146 21.0099L47.9683 23.739V15.5515C49.4845 12.3372 53.3446 12.2434 54.8216 15.5515V23.739L58.7637 19.8576C62.5239 19.8576 64.7072 21.5557 63.7975 25.9224L56.823 33.3821L56.823 49.09L53.9727 52.5469L47.362 41.3876L42.2069 39.2043L39.3565 36.839C37.9008 34.1099 39.7202 30.471 43.4805 31.2594Z" fill="#86A652"/>
<path d="M53.9734 54.0021C53.3467 52.5465 51.3049 48.3132 48.1511 43.0247C45.725 38.9562 42.0904 38.9102 39.5393 39.7497M39.5393 56.7919C39.3776 56.6053 38.7994 55.8813 37.5984 54.3117M37.5984 54.3117C36.8477 53.3307 35.8537 52.0194 34.566 50.3025C32.3896 46.8298 34.2199 43.7341 36.0352 41.9331M37.5984 54.3117L42.0862 50.7271M36.0352 41.9331C36.5976 41.3752 37.1585 40.9415 37.5984 40.6594C38.1067 40.3329 38.7743 40.0015 39.5393 39.7497M36.0352 41.9331L29.0469 35.2618M39.5393 39.7497L34.566 30.5312" stroke="black" stroke-width="1.21296" stroke-linecap="round"/>
<path d="M33.8378 39.8731L32.261 40.1157M32.261 38.2356V36.3556M30.017 36.3556H28.0156M37.4161 36.3556L36.0818 36.1736M36.8096 34.5361L37.2341 32.7167M35.4147 32.1102L33.6559 31.625" stroke="black" stroke-width="1.21296" stroke-linecap="round"/>
<rect x="56.8203" y="33.625" width="19.65" height="26.0787" fill="#74AACC"/>
<path d="M90.9062 30.1072L85.266 24.4062L76.472 33.6248V59.7035L80.2322 56.9743L90.9062 30.1072Z" fill="#74AACC"/>
<rect x="61.5508" y="33.625" width="14.9194" height="26.0787" fill="#7CB4D8"/>
<ellipse cx="63.2469" cy="59.033" rx="9.825" ry="11.5838" fill="#EEA04C"/>
<path d="M70.6455 59.033C70.6455 65.4306 68.419 70.6168 65.6724 70.6168C62.9258 70.6168 60.6992 65.4306 60.6992 59.033C60.6992 52.6355 62.9258 47.4492 65.6724 47.4492C68.419 47.4492 77.1955 58.0626 70.6455 59.033Z" fill="#F8A953"/>
<path d="M73.3153 57.0326C73.3153 55.5982 73.0124 54.18 72.4265 52.8707C71.8405 51.5614 70.9847 50.3905 69.9151 49.4348C68.8454 48.4791 67.586 47.76 66.2193 47.3245C64.8526 46.8891 63.4093 46.7472 61.9839 46.908C60.5585 47.0689 59.1832 47.5289 57.9478 48.2579C56.7125 48.987 55.645 49.9686 54.8152 51.1387C53.9855 52.3088 53.4121 53.6409 53.1327 55.0478C52.8533 56.4548 52.8741 57.9049 53.1937 59.3032L54.3227 59.0451C54.0394 57.8057 54.0209 56.5204 54.2686 55.2734C54.5163 54.0264 55.0245 52.8457 55.7599 51.8086C56.4954 50.7716 57.4415 49.9014 58.5364 49.2553C59.6314 48.6091 60.8504 48.2014 62.1138 48.0588C63.3771 47.9162 64.6564 48.042 65.8677 48.428C67.0791 48.8139 68.1954 49.4513 69.1435 50.2984C70.0915 51.1455 70.8501 52.1832 71.3694 53.3437C71.8887 54.5042 72.1572 55.7613 72.1572 57.0326H73.3153Z" fill="black"/>
<path d="M38.3867 55.9414L43.936 59.7016L49.546 56.3053L55.0043 59.7016L60.2807 56.3053L65.8603 59.7016L70.6515 56.3053L76.4738 59.7016L81.3863 56.3053L87.3904 59.7016V117.681H38.3867V55.9414Z" fill="#E9B373"/>
<path d="M49.5469 55.9414V56.3053L55.0052 59.7016L60.2816 56.3053L65.8612 59.7016L70.6524 56.3053L76.4747 59.7016L81.3872 56.3053L87.3913 59.7016V117.681H49.5469V55.9414Z" fill="#EDB97C"/>
<path d="M87.3906 59.9442L89.0888 58.7312L89.9378 58.0641L91.5753 56.9118L92.7883 55.9414L96.973 59.1558L98.4286 59.9442L100.005 58.9738L103.766 56.3053V59.7016V111.495C102.257 115.254 100.98 116.487 98.186 117.317L87.3906 117.681V59.9442Z" fill="#E5A86C"/>
<path d="M87.4495 60.0061L81.4454 56.064L76.7148 60.0061L70.65 56.064L65.8588 60.0061L60.3398 56.064L55.0028 60.0061L49.4231 56.064L44.0861 60.0061L38.6884 56.064V117.682H87.4495M87.4495 60.0061L92.7866 56.064L98.3662 60.0061L103.764 56.064V110.829C103.602 112.891 101.932 117.149 96.5468 117.682H87.4495M87.4495 60.0061V117.682M41.9028 39.0825C40.1238 38.0717 37.0994 35.3708 39.2343 32.6538C41.3691 29.9367 43.3583 30.8343 44.0861 31.6228L39.2343 26.0432C38.3247 25.0122 38.4097 22.5013 39.9622 21.1913C41.5147 19.8813 43.5404 19.5539 44.6927 20.6455L47.9071 23.8599V16.2182C47.9071 14.6413 48.9745 12.9069 51.3034 13.0039C53.6323 13.1009 55.0028 14.0348 55.0028 15.4904V23.8599L58.8844 19.9784C59.6728 19.3112 60.2187 19.0686 62.4627 20.6455C65.0429 22.4587 64.4236 25.1537 63.6756 26.2857" stroke="black" stroke-width="1.21296" stroke-linecap="round"/>
<path d="M41.5391 23.1306L46.5729 28.8315M51.4854 15.125V26.3449M61.4923 23.1306L55.7307 28.8315M42.6307 34.8356L47.9678 36.8977M51.4854 33.3194L53.4261 39.081M52.577 42.8412L49.7266 42.5986" stroke="#7E9D4C" stroke-width="1.21296" stroke-linecap="round"/>
<path d="M19.0977 94.0283L22.0694 92.5728L27.1639 92.2695L32.0764 94.8774L38.0199 92.2695L42.2046 93.058L45.4796 96.6362C46.8437 105.596 44.5094 115.558 36.3826 117.681L31.4094 115.983L26.6787 117.681C19.0979 116.286 15.9437 105.612 17.4602 98.0918L19.0977 94.0283Z" fill="#D86762"/>
<path d="M19.0972 94.0283L22.069 92.5728L27.1634 92.2695L32.0759 94.8774L38.0194 92.2695L42.2041 93.058C44.0846 96.0297 26.436 116.104 21.3415 114.224C18.9152 110.403 15.9433 105.612 17.4597 98.0918L19.0972 94.0283Z" fill="#E4746B"/>
<path d="M31.5316 95.3037C32.6637 94.212 35.7648 92.0529 39.1126 92.15C42.4604 92.247 45.0164 95.5462 45.4807 97.1839C46.5925 101.106 46.8756 110.551 39.1126 116.955C38.1625 117.845 35.316 118.86 31.5316 115.803M31.5314 115.803C27.747 118.86 24.9814 117.743 23.9504 116.955C16.1875 110.551 16.4705 101.106 17.5824 97.1839C18.1154 95.3037 20.6026 92.247 23.9504 92.15C27.2982 92.0529 30.3993 94.212 31.5314 95.3037V89.239C31.5112 88.1676 30.6096 85.8791 27.1647 85.2969" stroke="black" stroke-width="1.21296" stroke-linecap="round"/>
<path d="M65.7958 24.1641H85.2032L76.1667 33.6252H57.0625L65.7958 24.1641Z" fill="#74AACC"/>
<path d="M70.0983 24.1641H85.1997L76.4663 33.6252H61.5469L70.0983 24.1641Z" fill="#73AED4"/>
<path d="M65.793 16.8867H85.2004V23.9826H65.793V16.8867Z" fill="#DADCDE"/>
<path d="M56.8789 49.6365V33.4435M56.8789 33.4435L65.7942 24.1036M56.8789 33.4435H76.4683M65.7942 24.1036V17.0078H85.4442V24.1036M65.7942 24.1036H85.4442M85.4442 24.1036L76.4683 33.4435M85.4442 24.1036L91.0845 29.562M76.4683 33.4435V59.6435" stroke="black" stroke-width="1.21296" stroke-linecap="round"/>
</svg>
