<svg width="131" height="131" viewBox="0 0 131 131" fill="none" xmlns="http://www.w3.org/2000/svg">
<path d="M29.4961 27.3164H94.8748C102.407 48.5838 105.903 59.301 105.064 66.6771H91.7211L38.8966 116.954C39.5155 103.98 38.9413 94.6342 38.8966 85.1141C40.5341 50.8479 33.9721 32.2843 29.4961 27.3164Z" fill="#EDB97C"/>
<path d="M26.7053 104.461L39.684 118.41H19.5488L16.5164 116.773L14.8789 114.953L26.7053 104.461Z" fill="#EDB97C"/>
<path d="M13 61.5212C17.0986 35.8197 20.2802 29.5701 26.4639 23.0703V104.339L14.8194 115.195L13 111.374V61.5212Z" fill="#D09F65"/>
<path d="M38.957 58.9722C33.7413 33.2574 32.6472 30.66 26.4635 24.1602V104.337L38.5325 116.042L38.957 111.554V86.2032V58.9722Z" fill="#EDB97C"/>
<path d="M35.9258 13.7305H96.8165C102.578 17.1268 103.488 22.949 96.8165 27.3157H35.9258V13.7305Z" fill="#CA9E69"/>
<path d="M35.9258 17.0049L100.213 16.3984C102.154 19.2489 103.427 24.0011 96.7614 27.3151H35.9258V17.0049Z" fill="#EDB97C"/>
<path d="M89.4761 68.4932C82.6228 76.7414 65.9446 89.902 59.3337 97.1798C54.4821 90.3266 53.5117 82.5073 53.5117 74.1335C53.5117 65.7597 63.9678 52.6641 72.6765 52.6641C81.3852 52.6641 87.596 60.1844 89.4761 68.4932Z" fill="#A6CE65"/>
<path d="M109.308 66.5508H117.617L64.4288 117.92H55.5742L109.308 66.5508Z" fill="#D99557"/>
<path d="M92.0819 66.6133H100.391L47.2023 117.982H38.3477L92.0819 66.6133Z" fill="#D99557"/>
<path d="M100.574 66.6133H108.883L55.6945 117.982H46.8398L100.574 66.6133Z" fill="#FFE68D"/>
<path d="M72.6164 74.2554C72.6164 77.8393 73.2229 74.9831 71.8886 77.9549C68.1037 77.9549 64.7321 74.9225 61.5174 71.8294C61.9419 71.5868 57.7326 66.3711 61.5176 66.3711C65.3025 66.3711 72.6164 70.6714 72.6164 74.2554Z" fill="#7E9D4C"/>
<path d="M77.8316 79.7736C76.1941 81.0472 63.2154 94.5718 60.9714 95.7241C58.7942 95.7241 59.6371 86.4713 59.6371 85.2319C62.8514 78.5 70.1353 78.5 72.3125 78.5C74.4897 78.5 76.2548 79.2884 77.8316 79.7736Z" fill="#E4746B"/>
<path d="M78.4374 79.4097C76.7999 80.6834 65.0948 92.5097 63.2147 94.2079C61.0375 94.2079 61.5648 86.9907 62.4048 85.2319C65.62 78.5 72.9031 78.5 75.0803 78.5C77.0425 79.4097 76.8606 78.9246 78.4374 79.4097Z" fill="#D86762"/>
<path d="M116.949 67.3398L117.616 117.86H64.7305L116.949 67.3398Z" fill="#C5874E"/>
<path d="M117.677 66.8545V118.405H63.8821M117.677 66.8545H109.277M117.677 66.8545L63.8821 118.405M37.5001 118.405H21.1858C19.442 118.25 16.5891 117.407 14.7688 115.312M37.5001 118.405H38.9558M37.5001 118.405L38.9558 117.017M47.0825 118.405L100.877 66.8545M47.0825 118.405H55.3913M47.0825 118.405H38.9558M100.877 66.8545H91.5376L60.6072 96.3617M100.877 66.8545H105.077M109.277 66.8545L55.3913 118.405M109.277 66.8545H105.077M55.3913 118.405H63.8821M111.491 81.5314L109.247 86.08M104.638 94.0249L107.245 99.362M111.43 106.882V112.583M97.845 110.461L101.241 107.064M91.4163 101.667L97.5418 95.5411M87.2316 106.033L82.8043 110.461M26.0984 23.855C18.9177 30.0169 13.4836 52.117 13.0589 61.942C13.0791 75.7092 13.1074 104.687 13.0589 110.461C13.0414 112.545 13.7402 114.129 14.7688 115.312M38.9558 118.405V117.017M38.9558 117.017V61.942C38.5311 52.117 33.9463 31.0479 26.7655 24.886V104.093M38.9558 117.017L26.7655 104.093M38.9558 117.017L58.9244 97.967M26.7655 104.093L14.7688 115.312M32.891 13.6055H94.6915M32.891 27.1907H94.6915C98.6638 36.672 106.302 57.8786 105.077 66.8545M89.597 68.0069C79.5294 36.7124 38.6698 58.5457 58.9244 97.967M58.9244 97.967L60.6072 96.3617M60.6072 96.3617C57.9985 89.6098 57.2963 77.6137 72.7368 78.7207M77.8919 79.4694C76.0011 79.0753 74.2876 78.8319 72.7368 78.7207M72.7368 78.7207C72.5641 77.5309 72.5822 75.7043 73.0892 73.7078M72.7368 78.7207C61.141 73.9977 59.8188 68.842 60.6072 66.8545C65.38 65.5931 70.9172 70.8978 73.0892 73.7078M79.3475 65.3383C75.6065 67.5255 73.8283 70.7972 73.0892 73.7078" stroke="black" stroke-width="1.21296" stroke-linecap="round"/>
<circle cx="32.0436" cy="20.3991" r="7.39907" fill="#D4A671"/>
<circle cx="32.0439" cy="20.3993" r="5.21574" fill="#C59863"/>
<circle cx="32.0408" cy="20.4002" r="3.3963" fill="#B9905F"/>
<path d="M39.4427 20.3991C39.4427 18.6429 38.8181 16.9441 37.6805 15.6062C36.5429 14.2683 34.9666 13.3787 33.2333 13.0963C31.5001 12.8139 29.7229 13.1572 28.2195 14.0649C26.7161 14.9725 25.5845 16.3853 25.0271 18.0506C24.4697 19.7159 24.5228 21.5252 25.1769 23.155C25.831 24.7847 27.0435 26.1287 28.5975 26.9466C30.1515 27.7645 31.9458 28.0031 33.6595 27.6195C35.3732 27.236 36.8947 26.2555 37.9518 24.8532L37.0023 24.1373C36.115 25.3142 34.8381 26.1372 33.3998 26.4591C31.9615 26.781 30.4556 26.5808 29.1513 25.8943C27.8471 25.2078 26.8295 24.0799 26.2805 22.712C25.7316 21.3442 25.687 19.8257 26.1548 18.428C26.6226 17.0304 27.5723 15.8447 28.8341 15.0829C30.0958 14.3211 31.5874 14.033 33.0421 14.27C34.4968 14.507 35.8198 15.2536 36.7745 16.3765C37.7293 17.4994 38.2535 18.9252 38.2535 20.3991H39.4427Z" fill="black"/>
<path d="M37.4804 25.4178C38.6716 24.1274 39.3649 22.4554 39.4365 20.7007C39.5081 18.946 38.9533 17.2231 37.8712 15.84C36.7891 14.4568 35.2504 13.5036 33.5301 13.1508C31.8097 12.798 30.02 13.0686 28.4809 13.9142C26.9417 14.7598 25.7535 16.1253 25.1287 17.7665C24.5039 19.4077 24.4832 21.2177 25.0703 22.8727C25.6574 24.5278 26.814 25.9201 28.3334 26.8007C29.8528 27.6813 31.6359 27.9928 33.3638 27.6794L33.1516 26.5093C31.7014 26.7723 30.2049 26.5109 28.9297 25.7718C27.6545 25.0328 26.6838 23.8642 26.191 22.4752C25.6983 21.0861 25.7157 19.567 26.2401 18.1896C26.7645 16.8122 27.7617 15.6662 29.0535 14.9565C30.3452 14.2468 31.8473 14.0197 33.2912 14.3158C34.735 14.6119 36.0264 15.4119 36.9346 16.5727C37.8428 17.7336 38.3084 19.1796 38.2483 20.6522C38.1883 22.1249 37.6063 23.5282 36.6066 24.6112L37.4804 25.4178Z" fill="black"/>
<path d="M94.6295 27.7981C96.5919 27.7981 98.4739 27.0186 99.8615 25.631C101.249 24.2434 102.029 22.3614 102.029 20.3991C102.029 18.4367 101.249 16.5547 99.8615 15.1671C98.4739 13.7795 96.5919 13 94.6295 13L94.6295 14.1892C96.2765 14.1892 97.856 14.8434 99.0206 16.008C100.185 17.1726 100.839 18.7521 100.839 20.3991C100.839 22.046 100.185 23.6256 99.0206 24.7901C97.856 25.9547 96.2765 26.609 94.6295 26.609L94.6295 27.7981Z" fill="black"/>
</svg>
