<svg width="22" height="22" viewBox="0 0 22 22" fill="none" xmlns="http://www.w3.org/2000/svg">
<path d="M17.1434 8.57148C17.1434 13.3054 13.3057 17.143 8.57168 17.143C3.83767 17.143 0 13.3054 0 8.57148C0 3.83758 3.83767 0 8.57168 0C13.3057 0 17.1434 3.83758 17.1434 8.57148ZM1.80604 8.57148C1.80604 12.3079 4.83512 15.337 8.57168 15.337C12.3082 15.337 15.3373 12.3079 15.3373 8.57148C15.3373 4.83501 12.3082 1.806 8.57168 1.806C4.83512 1.806 1.80604 4.83501 1.80604 8.57148Z" fill="black"/>
<path d="M19.206 20.7959C19.6454 21.2353 20.3577 21.2353 20.7971 20.7959C21.2364 20.3566 21.2364 19.6442 20.797 19.2049L19.206 20.7959ZM13.0834 14.6734L19.206 20.7959L20.797 19.2049L14.6744 13.0824L13.0834 14.6734Z" fill="black"/>
</svg>
