<svg width="26" height="26" viewBox="0 0 26 26" fill="none" xmlns="http://www.w3.org/2000/svg">
<path d="M14.3757 2C14.3757 1.24023 13.7598 0.624318 13 0.624318C12.2402 0.624318 11.6243 1.24023 11.6243 2H14.3757ZM11.6243 24C11.6243 24.7598 12.2402 25.3757 13 25.3757C13.7598 25.3757 14.3757 24.7598 14.3757 24H11.6243ZM4.2 14.0208C4.95977 14.0208 5.57568 13.4049 5.57568 12.6452C5.57568 11.8854 4.95977 11.2695 4.2 11.2695V14.0208ZM2 11.2695C1.24023 11.2695 0.624318 11.8854 0.624318 12.6452C0.624318 13.4049 1.24023 14.0208 2 14.0208V11.2695ZM24 14.0208C24.7598 14.0208 25.3757 13.4049 25.3757 12.6452C25.3757 11.8854 24.7598 11.2695 24 11.2695V14.0208ZM21.8 11.2695C21.0402 11.2695 20.4243 11.8854 20.4243 12.6452C20.4243 13.4049 21.0402 14.0208 21.8 14.0208V11.2695ZM8.49831 2.76675C8.10784 2.115 7.26295 1.90319 6.6112 2.29366C5.95945 2.68413 5.74763 3.52901 6.1381 4.18077L8.49831 2.76675ZM7.21557 5.97922C7.60604 6.63097 8.45092 6.84278 9.10268 6.45231C9.75443 6.06184 9.96624 5.21695 9.57577 4.5652L7.21557 5.97922ZM18.793 20.0198C18.4041 19.3671 17.5597 19.1532 16.907 19.5421C16.2543 19.9309 16.0404 20.7753 16.4292 21.428L18.793 20.0198ZM17.503 23.2304C17.8919 23.8831 18.7362 24.097 19.389 23.7082C20.0417 23.3193 20.2556 22.475 19.8667 21.8222L17.503 23.2304ZM5.72987 18.2439C6.39551 17.8777 6.63817 17.0411 6.27187 16.3755C5.90558 15.7098 5.06903 15.4672 4.40339 15.8335L5.72987 18.2439ZM2.62869 16.8101C1.96305 17.1764 1.72038 18.0129 2.08668 18.6786C2.45298 19.3442 3.28953 19.5869 3.95517 19.2206L2.62869 16.8101ZM23.0245 8.566C23.685 8.19042 23.9159 7.35056 23.5403 6.69011C23.1647 6.02966 22.3249 5.79874 21.6644 6.17432L23.0245 8.566ZM19.9424 7.15363C19.2819 7.52921 19.051 8.36907 19.4266 9.02952C19.8021 9.68996 20.642 9.92089 21.3024 9.54531L19.9424 7.15363ZM19.8661 4.17889C20.2555 3.52651 20.0424 2.68196 19.39 2.29253C18.7376 1.9031 17.8931 2.11626 17.5036 2.76863L19.8661 4.17889ZM16.4283 4.57006C16.0389 5.22243 16.252 6.06698 16.9044 6.45641C17.5568 6.84584 18.4013 6.63269 18.7907 5.98031L16.4283 4.57006ZM9.57674 21.4367C9.96776 20.7853 9.75665 19.9402 9.10523 19.5492C8.4538 19.1582 7.60874 19.3693 7.21772 20.0207L9.57674 21.4367ZM6.1387 21.8183C5.74768 22.4697 5.95878 23.3148 6.61021 23.7058C7.26163 24.0968 8.1067 23.8857 8.49772 23.2343L6.1387 21.8183ZM4.72108 9.53292C5.38543 9.90153 6.22282 9.66179 6.59144 8.99743C6.96005 8.33307 6.72031 7.49568 6.05595 7.12707L4.72108 9.53292ZM4.32603 6.16723C3.66167 5.79862 2.82428 6.03836 2.45567 6.70272C2.08705 7.36708 2.3268 8.20447 2.99116 8.57308L4.32603 6.16723ZM22.0444 19.2186C22.709 19.5869 23.5463 19.3466 23.9145 18.682C24.2827 18.0175 24.0424 17.1802 23.3779 16.812L22.0444 19.2186ZM21.6032 15.8287C20.9386 15.4605 20.1013 15.7007 19.7331 16.3653C19.3649 17.0299 19.6051 17.8671 20.2697 18.2354L21.6032 15.8287ZM11.6243 2V4.12903H14.3757V2H11.6243ZM13 5.50471C15.5562 5.50471 17.3741 6.45692 18.5682 7.81106C19.7853 9.19133 20.4243 11.0724 20.4243 13C20.4243 14.9276 19.7853 16.8087 18.5682 18.1889C17.3741 19.5431 15.5562 20.4953 13 20.4953V23.2466C16.3105 23.2466 18.8925 21.9811 20.6318 20.0086C22.3481 18.0623 23.1757 15.5079 23.1757 13C23.1757 10.4921 22.3481 7.93771 20.6318 5.99136C18.8925 4.01888 16.3105 2.75335 13 2.75335V5.50471ZM13 2.75335C9.68949 2.75335 7.10746 4.01888 5.36817 5.99136C3.65192 7.93771 2.82432 10.4921 2.82432 13C2.82432 15.5079 3.65192 18.0623 5.36817 20.0086C7.10746 21.9811 9.68949 23.2466 13 23.2466V20.4953C10.4438 20.4953 8.62588 19.5431 7.43183 18.1889C6.21474 16.8087 5.57568 14.9276 5.57568 13C5.57568 11.0724 6.21474 9.19133 7.43183 7.81106C8.62588 6.45692 10.4438 5.50471 13 5.50471V2.75335ZM11.6243 21.871V24H14.3757V21.871H11.6243ZM4.2 11.2695H2V14.0208H4.2V11.2695ZM24 11.2695H21.8V14.0208H24V11.2695ZM6.1381 4.18077L7.21557 5.97922L9.57577 4.5652L8.49831 2.76675L6.1381 4.18077ZM16.4292 21.428L17.503 23.2304L19.8667 21.8222L18.793 20.0198L16.4292 21.428ZM4.40339 15.8335L2.62869 16.8101L3.95517 19.2206L5.72987 18.2439L4.40339 15.8335ZM21.6644 6.17432L19.9424 7.15363L21.3024 9.54531L23.0245 8.566L21.6644 6.17432ZM17.5036 2.76863L16.4283 4.57006L18.7907 5.98031L19.8661 4.17889L17.5036 2.76863ZM7.21772 20.0207L6.1387 21.8183L8.49772 23.2343L9.57674 21.4367L7.21772 20.0207ZM6.05595 7.12707L4.32603 6.16723L2.99116 8.57308L4.72108 9.53292L6.05595 7.12707ZM23.3779 16.812L21.6032 15.8287L20.2697 18.2354L22.0444 19.2186L23.3779 16.812Z" fill="black"/>
<path d="M21.0674 12.8581H13.0011M7.66406 4.83887L13.0011 12.8581M7.66562 20.2953L13.0011 12.8581" stroke="black" stroke-width="1.37568" stroke-linecap="round"/>
</svg>
