<svg width="758" height="688" viewBox="0 0 758 688" fill="none" xmlns="http://www.w3.org/2000/svg">
<path d="M88.9439 683H670.555L706.031 491H574.12L547.637 538H211.862L186.878 491H51.9686L88.9439 683Z" fill="#E1EAFF"/>
<path d="M706.031 418.5L670.555 321H574.12H186.878H88.9439L51.9686 418.5H706.031Z" fill="#417FEF"/>
<path d="M574.12 491H706.031H753V418.5H706.031H51.9686H5V491H51.9686H186.878L211.862 538H547.637L574.12 491Z" fill="#55A1FF"/>
<path d="M147.904 151.5L186.878 321H574.12L610.595 151.5H512.661L475.186 199H282.814L246.838 151.5H147.904Z" fill="#E1EAFF"/>
<path d="M147.904 151.5H246.838L282.814 199H475.186L512.661 151.5H610.595H655.065V77.5H610.595H147.904H102.935V151.5H147.904Z" fill="#55A1FF"/>
<path d="M186.878 5L147.904 77.5H610.595L574.12 5H186.878Z" fill="#417FEF"/>
<path d="M706.031 491L670.555 683H88.9439L51.9686 491M706.031 491H574.12L547.637 538H211.862L186.878 491H51.9686M706.031 491H753V418.5H706.031M51.9686 491H5V418.5H51.9686M706.031 418.5L670.555 321H574.12M706.031 418.5H51.9686M51.9686 418.5L88.9439 321H186.878M186.878 321L147.904 151.5M186.878 321H574.12M147.904 151.5H246.838L282.814 199H475.186L512.661 151.5H610.595M147.904 151.5H102.935V77.5H147.904M147.904 77.5L186.878 5H574.12L610.595 77.5M147.904 77.5H610.595M610.595 77.5H655.065V151.5H610.595M574.12 321L610.595 151.5" stroke="black" stroke-width="10"/>
<path opacity="0.4" d="M186.881 321L147.907 151.5H102.938V77.5H147.907L186.881 5H231.503L192.003 77.5V151.5L233.003 321H186.881Z" fill="black"/>
<path opacity="0.3" d="M88.9439 683L51.9686 491H5V418.5H51.9686L88.9439 321H150L117 418.5V491L157 683H88.9439Z" fill="black"/>
</svg>
