<svg width="44" height="27" viewBox="0 0 44 27" fill="none" xmlns="http://www.w3.org/2000/svg">
<path d="M8.39907 5.9873C8.39907 5.9873 0.987305 12.9873 0.987305 13.4873C0.987305 13.9873 8.39907 20.9873 8.39907 20.9873M18.2814 0.987305L18.6211 1.11486C20.3135 1.75043 21.1598 2.06822 21.6438 2.82478C22.1278 3.58135 22.1278 4.58628 22.1278 6.59614V10.3762C22.1278 14.4617 22.2101 15.8099 23.3367 17.0792C24.4633 18.3484 26.2765 18.3484 29.9029 18.3484H31.2845M36.7984 18.3484C38.8281 18.3484 39.843 18.3484 40.5604 17.724C41.2778 17.0995 41.4827 16.0379 41.8925 13.9144L42.5424 10.5467C42.9937 8.13132 43.2193 6.92365 42.6421 6.12214C42.0649 5.32064 40.0926 5.32064 37.9015 5.32064H30.0148M22.1278 5.32064H24.783M28.0338 9.32064L28.7206 13.6511M35.8723 9.32064L35.1855 13.6511M25.4331 21.8206C26.5103 21.8206 27.3836 22.7534 27.3836 23.904C27.3836 25.0545 26.5103 25.9873 25.4331 25.9873C24.3559 25.9873 23.4827 25.0545 23.4827 23.904C23.4827 22.7534 24.3559 21.8206 25.4331 21.8206ZM37.1359 21.8206C38.2131 21.8206 39.0864 22.7533 39.0864 23.904C39.0864 25.0545 38.2131 25.9873 37.1359 25.9873C36.0587 25.9873 35.1855 25.0545 35.1855 23.904C35.1855 22.7533 36.0587 21.8206 37.1359 21.8206Z" stroke="white" stroke-width="1.97368" stroke-linecap="round"/>
</svg>
