<svg width="43" height="43" viewBox="0 0 43 43" fill="none" xmlns="http://www.w3.org/2000/svg">
<path d="M26.5 16.5L16.5 26.5M16.5 16.5L26.5 26.5M41.5 21.5C41.5 30.928 41.5 35.6422 38.571 38.571C35.6422 41.5 30.928 41.5 21.5 41.5C12.0719 41.5 7.35786 41.5 4.42894 38.571C1.5 35.6422 1.5 30.928 1.5 21.5C1.5 12.0719 1.5 7.35786 4.42894 4.42894C7.35786 1.5 12.0719 1.5 21.5 1.5C30.928 1.5 35.6422 1.5 38.571 4.42894C40.5186 6.37642 41.1712 9.1131 41.3898 13.5" stroke="black" stroke-width="3" stroke-linecap="round"/>
</svg>
