<svg width="27" height="27" viewBox="0 0 27 27" fill="none" xmlns="http://www.w3.org/2000/svg">
<path d="M2.22841 19.6878C2.98436 22.7193 3.36234 24.235 4.48973 25.1175C5.61712 26 7.17555 26 10.2924 26H16.7075C19.8245 26 21.3829 26 22.5103 25.1175C23.6377 24.235 24.0156 22.7193 24.7716 19.6878C25.9601 14.9214 26.5544 12.5382 25.3065 10.9358C24.0586 9.33333 21.6083 9.33333 16.7075 9.33333H10.2924C5.39182 9.33333 2.94152 9.33333 1.69353 10.9358C0.960966 11.8764 0.863201 13.0861 1.1478 14.8889M23.8896 10.0278L22.9055 6.40924C22.526 5.01396 22.3362 4.31632 21.9471 3.79092C21.5594 3.26768 21.0327 2.86436 20.4273 2.62711C19.8193 2.38889 19.0981 2.38889 17.6555 2.38889M17.6555 2.38889C17.6555 1.62183 17.0353 1 16.2701 1H10.7287C9.96356 1 9.3433 1.62183 9.3433 2.38889M17.6555 2.38889C17.6555 3.15594 17.0353 3.77778 16.2701 3.77778H10.7287C9.96356 3.77778 9.3433 3.15594 9.3433 2.38889M3.10916 10.0278L4.09333 6.40924C4.47281 5.01396 4.66254 4.31632 5.05174 3.79092C5.43933 3.26768 5.96601 2.86436 6.57149 2.62711C7.17947 2.38889 7.90075 2.38889 9.3433 2.38889M19.0409 14.8889V20.4444M7.95794 14.8889V20.4444M13.4994 14.8889V20.4444" stroke="black" stroke-width="2" stroke-linecap="round"/>
</svg>
