<svg width="22" height="22" viewBox="0 0 22 22" fill="none" xmlns="http://www.w3.org/2000/svg">
<mask id="path-1-inside-1_3502_2241" fill="white">
<path d="M17.1427 8.5713C17.1427 13.3051 13.3052 17.1426 8.57135 17.1426C3.83753 17.1426 0 13.3051 0 8.5713C0 3.8375 3.83753 0 8.57135 0C13.3052 0 17.1427 3.8375 17.1427 8.5713ZM1.80597 8.5713C1.80597 12.3077 4.83494 15.3366 8.57135 15.3366C12.3078 15.3366 15.3367 12.3077 15.3367 8.5713C15.3367 4.83491 12.3078 1.80596 8.57135 1.80596C4.83494 1.80596 1.80597 4.83491 1.80597 8.5713Z"/>
</mask>
<path d="M17.1427 8.5713C17.1427 13.3051 13.3052 17.1426 8.57135 17.1426C3.83753 17.1426 0 13.3051 0 8.5713C0 3.8375 3.83753 0 8.57135 0C13.3052 0 17.1427 3.8375 17.1427 8.5713ZM1.80597 8.5713C1.80597 12.3077 4.83494 15.3366 8.57135 15.3366C12.3078 15.3366 15.3367 12.3077 15.3367 8.5713C15.3367 4.83491 12.3078 1.80596 8.57135 1.80596C4.83494 1.80596 1.80597 4.83491 1.80597 8.5713Z" fill="#8E8E92" stroke="#8E8E92" stroke-width="1.6667" mask="url(#path-1-inside-1_3502_2241)"/>
<path d="M19.2048 20.7956C19.6442 21.2349 20.3565 21.2349 20.7958 20.7955C21.2352 20.3562 21.2352 19.6439 20.7958 19.2045L20.0003 20L19.2048 20.7956ZM13.8779 13.8777L13.0824 14.6732L19.2048 20.7956L20.0003 20L20.7958 19.2045L14.6734 13.0822L13.8779 13.8777Z" fill="#8E8E92"/>
</svg>
