<svg width="23" height="23" viewBox="0 0 23 23" fill="none" xmlns="http://www.w3.org/2000/svg">
<path d="M12.7512 1.37598C12.7512 0.616208 12.1353 0.000294089 11.3755 0.000294089C10.6157 0.000294089 9.99981 0.616208 9.99981 1.37598H11.3755H12.7512ZM9.99981 21.376C9.99981 22.1357 10.6157 22.7517 11.3755 22.7517C12.1353 22.7517 12.7512 22.1357 12.7512 21.376H11.3755H9.99981ZM3.37549 12.4291C4.13526 12.4291 4.75117 11.8132 4.75117 11.0534C4.75117 10.2936 4.13526 9.67771 3.37549 9.67771V11.0534V12.4291ZM1.37549 9.67771C0.61572 9.67771 -0.000194192 10.2936 -0.000194192 11.0534C-0.000194192 11.8132 0.61572 12.4291 1.37549 12.4291V11.0534V9.67771ZM21.3755 12.4291C22.1353 12.4291 22.7512 11.8132 22.7512 11.0534C22.7512 10.2936 22.1353 9.67771 21.3755 9.67771V11.0534V12.4291ZM19.3755 9.67771C18.6157 9.67771 17.9998 10.2936 17.9998 11.0534C17.9998 11.8132 18.6157 12.4291 19.3755 12.4291V11.0534V9.67771ZM7.39032 2.00875C6.99986 1.357 6.15497 1.14518 5.50321 1.53565C4.85146 1.92612 4.63965 2.77101 5.03012 3.42276L6.21022 2.71576L7.39032 2.00875ZM6.00963 5.05772C6.4001 5.70947 7.24499 5.92128 7.89674 5.53082C8.54849 5.14035 8.76031 4.29546 8.36984 3.64371L7.18973 4.35071L6.00963 5.05772ZM16.7492 17.6936C16.3604 17.0409 15.516 16.827 14.8633 17.2159C14.2106 17.6047 13.9967 18.4491 14.3855 19.1018L15.5674 18.3977L16.7492 17.6936ZM15.3617 20.7403C15.7506 21.3931 16.5949 21.607 17.2476 21.2181C17.9004 20.8293 18.1143 19.9849 17.7254 19.3322L16.5436 20.0363L15.3617 20.7403ZM4.82658 16.2528C5.49221 15.8865 5.73488 15.0499 5.36858 14.3843C5.00228 13.7186 4.16573 13.476 3.50009 13.8423L4.16333 15.0475L4.82658 16.2528ZM1.88673 14.7301C1.22109 15.0964 0.978425 15.933 1.34472 16.5986C1.71102 17.2642 2.54757 17.5069 3.21321 17.1406L2.54997 15.9354L1.88673 14.7301ZM20.5505 7.45378C21.211 7.0782 21.4419 6.23834 21.0663 5.57789C20.6907 4.91745 19.8509 4.68652 19.1904 5.0621L19.8705 6.25794L20.5505 7.45378ZM17.6249 5.95238C16.9644 6.32796 16.7335 7.16782 17.1091 7.82827C17.4847 8.48871 18.3245 8.71964 18.985 8.34406L18.3049 7.14822L17.6249 5.95238ZM17.7248 3.42089C18.1142 2.76851 17.9011 1.92396 17.2487 1.53453C16.5963 1.1451 15.7518 1.35826 15.3623 2.01063L16.5436 2.71576L17.7248 3.42089ZM14.3847 3.64829C13.9953 4.30066 14.2085 5.14521 14.8608 5.53464C15.5132 5.92408 16.3578 5.71092 16.7472 5.05855L15.566 4.35342L14.3847 3.64829ZM8.37066 19.11C8.76168 18.4586 8.55057 17.6136 7.89915 17.2225C7.24772 16.8315 6.40266 17.0426 6.01164 17.6941L7.19115 18.4021L8.37066 19.11ZM5.03071 19.3283C4.6397 19.9797 4.8508 20.8248 5.50222 21.2158C6.15365 21.6068 6.99872 21.3957 7.38973 20.7443L6.21022 20.0363L5.03071 19.3283ZM3.78852 8.33344C4.45288 8.70206 5.29027 8.46231 5.65888 7.79795C6.0275 7.13359 5.78775 6.29621 5.12339 5.92759L4.45595 7.13052L3.78852 8.33344ZM3.55074 5.05501C2.88638 4.6864 2.04899 4.92614 1.68037 5.5905C1.31176 6.25486 1.55151 7.09225 2.21586 7.46086L2.8833 6.25794L3.55074 5.05501ZM19.5371 17.1387C20.2017 17.5069 21.0389 17.2667 21.4071 16.6021C21.7754 15.9375 21.5351 15.1002 20.8705 14.732L20.2038 15.9354L19.5371 17.1387ZM19.2571 13.8381C18.5926 13.4699 17.7553 13.7102 17.3871 14.3747C17.0189 15.0393 17.2591 15.8766 17.9237 16.2448L18.5904 15.0415L19.2571 13.8381ZM11.3755 1.37598H9.99981V3.31146H11.3755H12.7512V1.37598H11.3755ZM11.3755 3.31146V4.68714C13.665 4.68714 15.2829 5.53855 16.3437 6.74147C17.4274 7.97053 17.9998 9.64999 17.9998 11.376C17.9998 13.102 17.4274 14.7814 16.3437 16.0105C15.2829 17.2134 13.665 18.0648 11.3755 18.0648V19.4405V20.8162C14.4193 20.8162 16.8014 19.6514 18.4073 17.8302C19.9902 16.035 20.7512 13.6823 20.7512 11.376C20.7512 9.0697 19.9902 6.71691 18.4073 4.92177C16.8014 3.1005 14.4193 1.93578 11.3755 1.93578V3.31146ZM11.3755 3.31146V1.93578C8.33164 1.93578 5.94961 3.1005 4.34366 4.92177C2.76075 6.71691 1.99981 9.0697 1.99981 11.376C1.99981 13.6823 2.76075 16.035 4.34366 17.8302C5.94961 19.6514 8.33164 20.8162 11.3755 20.8162V19.4405V18.0648C9.086 18.0648 7.46803 17.2134 6.40732 16.0105C5.32356 14.7814 4.75117 13.102 4.75117 11.376C4.75117 9.64999 5.32356 7.97053 6.40732 6.74147C7.46803 5.53855 9.086 4.68714 11.3755 4.68714V3.31146ZM11.3755 19.4405H9.99981V21.376H11.3755H12.7512V19.4405H11.3755ZM3.37549 11.0534V9.67771H1.37549V11.0534V12.4291H3.37549V11.0534ZM21.3755 11.0534V9.67771H19.3755V11.0534V12.4291H21.3755V11.0534ZM6.21022 2.71576L5.03012 3.42276L6.00963 5.05772L7.18973 4.35071L8.36984 3.64371L7.39032 2.00875L6.21022 2.71576ZM15.5674 18.3977L14.3855 19.1018L15.3617 20.7403L16.5436 20.0363L17.7254 19.3322L16.7492 17.6936L15.5674 18.3977ZM4.16333 15.0475L3.50009 13.8423L1.88673 14.7301L2.54997 15.9354L3.21321 17.1406L4.82658 16.2528L4.16333 15.0475ZM19.8705 6.25794L19.1904 5.0621L17.6249 5.95238L18.3049 7.14822L18.985 8.34406L20.5505 7.45378L19.8705 6.25794ZM16.5436 2.71576L15.3623 2.01063L14.3847 3.64829L15.566 4.35342L16.7472 5.05855L17.7248 3.42089L16.5436 2.71576ZM7.19115 18.4021L6.01164 17.6941L5.03071 19.3283L6.21022 20.0363L7.38973 20.7443L8.37066 19.11L7.19115 18.4021ZM4.45595 7.13052L5.12339 5.92759L3.55074 5.05501L2.8833 6.25794L2.21586 7.46086L3.78852 8.33344L4.45595 7.13052ZM20.2038 15.9354L20.8705 14.732L19.2571 13.8381L18.5904 15.0415L17.9237 16.2448L19.5371 17.1387L20.2038 15.9354Z" fill="white"/>
<path d="M18.7108 11.2472H11.3777M6.52588 3.95703L11.3777 11.2472M6.5273 18.0084L11.3777 11.2472" stroke="white" stroke-width="1.37568" stroke-linecap="round"/>
</svg>
